<svg width="1300" height="1300" viewBox="0 0 1300 1300" fill="none" xmlns="http://www.w3.org/2000/svg">
<path d="M650 1300C290.71 1300 0 1008.86 0 650C0 290.71 291.141 0 650 0C1009.29 0 1300 291.141 1300 650C1300.43 1009.29 1009.29 1300 650 1300Z" fill="#F7C0B5"/>
<mask id="mask0_32_1462" style="mask-type:alpha" maskUnits="userSpaceOnUse" x="0" y="0" width="1301" height="1300">
<path d="M650 1300C290.71 1300 0 1008.86 0 650C0 290.71 291.141 0 650 0C1009.29 0 1300 291.141 1300 650C1300.43 1009.29 1009.29 1300 650 1300Z" fill="#F7C0B5"/>
</mask>
<g mask="url(#mask0_32_1462)">
<path d="M1013.13 1197.32C1010.1 1199.48 1006.63 1201.65 1003.6 1203.82C1000.13 1205.98 997.1 1208.15 993.633 1209.88C990.6 1211.62 988 1213.35 984.966 1215.08C984.533 1215.52 984.1 1215.52 983.666 1215.95C973.7 1222.02 963.3 1227.65 952.9 1232.85C949.866 1234.58 946.4 1236.32 943.366 1237.62C943.366 1237.62 942.933 1238.05 942.5 1238.05C939.033 1239.78 935.566 1241.52 932.1 1243.25C925.166 1246.72 917.8 1249.75 910.866 1252.78C907.4 1254.52 903.5 1255.82 900.033 1257.12C896.566 1258.42 892.666 1260.15 889.2 1261.45C885.733 1262.75 881.833 1264.48 878.366 1265.78C878.366 1265.78 878.366 1265.78 877.933 1265.78C874.466 1267.08 870.566 1268.38 867.1 1269.68C859.3 1272.28 851.066 1274.88 843.266 1277.48C840.666 1278.35 837.633 1279.22 835.033 1280.08C826.8 1282.68 818.566 1284.85 810.333 1286.58C807.3 1287.45 804.266 1287.88 800.8 1288.75C793 1290.48 784.766 1292.22 776.966 1293.95C775.233 1294.38 773.933 1294.38 772.2 1294.82C769.6 1295.25 766.566 1295.68 763.966 1296.12C760.066 1296.55 756.6 1297.42 752.7 1297.85C750.966 1298.28 749.233 1298.28 747.5 1298.72C745.333 1299.15 742.733 1299.58 740.133 1299.58C733.2 1300.45 725.833 1301.32 718.9 1302.18C716.733 1302.62 714.133 1302.62 711.966 1303.05H711.533C708.5 1303.48 705.466 1303.48 702.433 1303.92C699.4 1304.35 696.366 1304.35 693.333 1304.35C691.6 1304.35 689.433 1304.78 687.7 1304.78C684.233 1304.78 681.2 1305.22 678.166 1305.22C673.833 1305.22 669.933 1305.65 665.6 1305.65C661.266 1305.65 657.366 1305.65 653.033 1305.65C650 1305.65 646.966 1305.65 643.933 1305.65C461.5 1303.05 296.833 1225.48 179.833 1102.42C179.833 1102.42 179.833 1101.98 179.4 1101.98C192.833 1075.55 242.666 1027.88 294.666 988.45C360.533 938.616 453.7 907.85 453.7 907.85C453.7 907.85 514.8 897.883 741.433 945.116C914.333 981.516 988 1129.28 1013.13 1197.32Z" fill="#FEE4BF"/>
<path d="M789.533 1065.15C780.433 1109.78 721.5 1136.22 622.267 1096.35C500.5 1046.95 453.7 907.85 453.7 907.85C447.2 808.183 432.033 722.816 432.033 722.816C572.867 710.683 739.267 875.35 739.267 875.35L758.333 956.816C760.067 963.75 763.533 969.816 768.733 974.15C777.833 989.75 795.6 1036.55 789.533 1065.15Z" fill="#FEE4BF"/>
<path d="M768.733 974.583C685.966 970.25 624.866 958.116 559.433 840.683C614.9 889.65 680.333 908.283 749.233 916.95L758.333 956.816C760.066 964.183 763.533 970.25 768.733 974.583Z" fill="#EFBD9C"/>
<path d="M939.899 452.416C947.699 488.816 951.599 518.283 930.366 615.35C909.133 712.416 949.866 809.483 847.599 898.316C778.699 958.116 658.233 969.383 562.033 903.95C529.533 881.85 499.633 851.083 475.366 810.783C456.3 779.15 434.2 749.25 409.5 721.95C375.266 684.683 334.1 609.716 354.466 477.116C387.4 261.317 601.033 236.617 727.133 260.45C853.233 284.283 918.666 356.216 939.899 452.416Z" fill="#FEE4BF"/>
<path d="M525.199 621.85C525.199 621.85 511.766 556.85 448.499 564.65C393.899 571.583 374.833 702.45 498.766 738.85" fill="#FEE4BF"/>
<path d="M494.866 679.483C494.866 679.483 479.266 669.516 481 652.183C483.6 631.816 481 619.25 471.466 615.35C447.633 605.383 442.866 633.116 443.733 636.583" stroke="#423232" stroke-width="13.4786" stroke-miterlimit="10" stroke-linecap="round" stroke-linejoin="round"/>
<path d="M825.5 721.516C825.5 721.516 841.967 722.383 857.567 703.75C866.233 693.35 873.6 680.35 868.833 676.45C864.067 672.116 785.633 684.25 780.433 694.65C775.233 705.05 805.567 721.516 825.5 721.516Z" fill="#EFBD9C"/>
<path d="M838.5 575.916C838.5 575.916 839.366 617.083 865.8 663.016C877.5 683.383 859.733 716.75 821.167 722.383" stroke="#423232" stroke-width="13.4786" stroke-miterlimit="10" stroke-linecap="round" stroke-linejoin="round"/>
<path d="M906.533 816.416C906.533 816.85 906.533 816.85 906.533 816.416C906.1 816.85 906.1 816.85 906.533 816.416C895.7 844.583 877.933 871.45 847.6 897.883C778.7 957.683 658.233 968.95 562.033 903.516C551.2 896.15 540.8 887.916 530.833 878.816C523.9 870.15 517.833 861.05 512.633 851.516C481.433 793.016 494.866 738.416 494.866 738.416C494.866 738.416 512.633 738.85 533.866 780.45C551.633 815.116 620.1 813.816 648.266 748.816C679.466 676.45 757.466 708.083 775.233 715.016C793 721.95 820.733 721.95 820.733 721.95C890.933 721.083 869.7 768.316 877.066 794.316C887.9 829.85 906.533 816.416 906.533 816.416Z" fill="#423232"/>
<path d="M1158.82 1466.34H63.3557C63.3557 1466.34 68.1224 1264.41 135.722 1121.84C185.556 1016.11 313.822 955.873 403.089 925.106C423.022 918.173 441.222 912.973 455.956 909.073C460.722 922.073 508.822 1049.47 624.089 1096.27C723.322 1136.57 782.256 1109.71 791.356 1065.07C796.989 1036.47 779.222 989.673 770.122 974.506C764.922 970.173 761.456 963.673 759.722 957.173L756.256 942.873C764.056 941.139 771.422 938.973 779.222 936.806C783.122 937.673 787.022 938.539 790.922 939.406C846.822 952.839 929.589 985.339 1026.66 1067.24C1138.89 1160.84 1158.82 1466.34 1158.82 1466.34Z" fill="#FFDE55"/>
<path d="M806.956 1182.94C791.789 1187.27 738.923 1132.24 728.089 1122.71C718.123 1133.97 647.923 1213.27 613.256 1208.07C575.123 1202.44 477.623 1137.01 428.223 1034.31C400.923 977.973 400.056 943.739 403.089 925.106C404.389 916.439 406.989 910.806 408.289 907.773C412.623 897.806 443.823 859.239 451.623 859.673V860.106C455.523 901.706 468.956 942.006 491.489 977.106C519.223 1020.01 562.989 1071.57 624.089 1096.27C723.323 1136.57 774.889 1096.71 783.556 1052.07C789.189 1023.47 779.223 989.673 770.123 974.506C764.923 970.173 761.456 963.673 759.723 957.173L756.256 942.873C764.056 941.139 771.423 938.973 779.223 936.806C781.389 935.939 783.989 935.506 786.156 934.639C787.456 936.373 789.189 938.106 790.489 939.839C808.689 960.639 827.756 989.239 838.156 1037.77C855.922 1115.34 823.856 1177.74 806.956 1182.94Z" fill="#423232"/>
<path d="M726.789 1120.11C726.789 1120.11 758.422 1138.31 757.556 1153.47C756.689 1168.64 765.789 1216.74 765.789 1216.74" stroke="#423232" stroke-width="13.4786" stroke-miterlimit="10" stroke-linecap="round" stroke-linejoin="round"/>
<path d="M726.357 1177.74C732.1 1177.74 736.756 1173.08 736.756 1167.34C736.756 1161.6 732.1 1156.94 726.357 1156.94C720.613 1156.94 715.957 1161.6 715.957 1167.34C715.957 1173.08 720.613 1177.74 726.357 1177.74Z" fill="#423232"/>
<path d="M730.256 1218.47C736 1218.47 740.656 1213.82 740.656 1208.07C740.656 1202.33 736 1197.67 730.256 1197.67C724.512 1197.67 719.856 1202.33 719.856 1208.07C719.856 1213.82 724.512 1218.47 730.256 1218.47Z" fill="#423232"/>
<path d="M277.855 1466.34L258.355 1305.57" stroke="#544D4D" stroke-width="13.4786" stroke-miterlimit="10" stroke-linecap="round" stroke-linejoin="round"/>
<path d="M1034.46 1250.97C1034.46 1250.97 1021.46 1282.61 1025.36 1314.24C1029.26 1345.87 1040.52 1392.24 1024.49 1466.34" stroke="#544D4D" stroke-width="13.4786" stroke-miterlimit="10" stroke-linecap="round" stroke-linejoin="round"/>
<path d="M699.712 590.249C699.712 590.682 699.712 591.116 699.712 591.116L699.279 603.249C698.845 613.649 690.179 621.449 679.779 621.016C669.379 620.582 661.579 611.482 662.445 601.516L662.879 589.382C662.879 587.216 663.745 584.616 664.612 582.882L699.279 584.616C699.279 586.349 699.712 588.082 699.712 590.249Z" fill="#423232"/>
<path d="M880.84 599.782L880.407 611.049C879.974 620.582 871.74 627.949 862.207 627.515C852.674 627.082 845.307 618.849 845.74 609.315L846.174 598.049C846.174 595.882 846.607 593.715 847.474 591.982L879.974 593.282C880.84 595.449 880.84 597.615 880.84 599.782Z" fill="#423232"/>
<path d="M743.042 530.882C752.575 532.182 759.942 522.215 756.475 512.682C754.742 507.482 751.708 502.715 746.942 499.682C732.208 490.582 677.175 489.715 648.142 510.515C622.575 529.582 699.708 524.815 743.042 530.882Z" fill="#423232"/>
<path d="M863.074 535.649C855.274 535.649 850.508 525.682 854.408 517.449C856.574 513.115 859.608 509.215 863.941 507.049C877.374 500.549 913.341 504.449 929.374 526.549C943.674 546.049 899.041 535.215 863.074 535.649Z" fill="#423232"/>
<path d="M727.875 585.482L698.842 584.182L664.175 582.882L656.375 582.448" stroke="#423232" stroke-width="13.4786" stroke-miterlimit="10" stroke-linecap="round" stroke-linejoin="round"/>
<path d="M899.043 594.149L879.976 593.282L847.476 591.982H846.176" stroke="#423232" stroke-width="13.4786" stroke-miterlimit="10" stroke-linecap="round" stroke-linejoin="round"/>
<path d="M804.157 772.845C804.606 780.033 799.214 792.613 789.33 801.599C738.561 770.598 715.647 786.773 715.647 786.773C697.676 759.366 701.719 722.075 745.3 750.38C775.851 769.7 794.272 772.845 804.157 772.845Z" fill="#423232"/>
<path d="M789.331 801.599C778.549 811.034 762.374 816.875 740.359 807.889C730.026 803.846 721.938 795.758 715.648 786.773C715.648 786.773 738.562 770.598 789.331 801.599Z" fill="#FE9DAB"/>
<path d="M812.695 771.048C812.695 771.048 793.825 781.381 745.302 750.381C687.344 713.09 699.025 791.266 739.91 807.889C782.592 825.411 804.608 787.222 804.158 772.845" stroke="#423232" stroke-width="13.4786" stroke-miterlimit="10" stroke-linecap="round" stroke-linejoin="round"/>
<path d="M715.648 786.773C715.648 786.773 738.562 770.598 789.331 801.599" stroke="#423232" stroke-width="13.4786" stroke-miterlimit="10" stroke-linecap="round" stroke-linejoin="round"/>
<path d="M1025.83 400.553C1025.83 345.953 989 300.453 939.167 286.153C941.767 275.32 942.2 264.053 939.6 252.353C930.933 214.653 897.133 188.22 858.567 190.82C843.4 191.686 829.1 197.32 817.4 205.986C799.2 163.953 757.167 134.486 708.633 134.486C657.067 134.486 613.3 167.42 596.833 213.353C578.633 191.686 551.333 177.82 521 177.82C468.133 177.82 424.8 219.42 422.2 271.853C413.967 269.253 404.867 267.953 395.767 268.386C360.667 270.553 332.067 299.153 329.467 334.253C328.6 345.953 330.767 357.22 335.1 367.62C285.7 372.82 247.133 414.853 247.133 465.553C247.133 503.686 268.8 537.053 300.867 553.52C287.867 566.52 279.633 584.286 279.633 603.786C279.633 640.186 307.367 670.52 342.9 674.42C340.733 681.353 339.867 689.586 342.467 697.82C346.367 712.12 358.067 723.386 372.367 726.42C381.033 728.153 389.267 727.286 396.633 724.253C400.533 729.886 404.433 734.653 407.9 738.986C412.233 744.186 415.7 748.953 419.167 753.72C439.1 782.32 484.6 769.753 486.333 735.086C486.333 734.653 486.333 734.653 486.333 734.22C378 692.62 397.5 571.72 450.367 564.786C505.833 557.853 523.167 607.253 526.2 619.386C585.567 581.253 501.067 443.886 588.167 403.153C665.733 367.186 747.2 421.786 846.867 435.22C883.7 440.42 918.367 404.02 933.967 424.386C937 433.486 939.6 442.586 941.767 452.12C948.7 482.886 952.167 508.886 940.467 574.753C969.067 559.153 982.933 535.753 985.533 512.786C986.4 504.986 986.4 496.753 985.967 488.953C1010.23 467.72 1025.83 436.086 1025.83 400.553Z" fill="#423232"/>
</g>
</svg>
