<svg width="1300" height="1300" viewBox="0 0 1300 1300" fill="none" xmlns="http://www.w3.org/2000/svg">
<path d="M650 1300C290.71 1300 0 1008.86 0 650C0 290.71 291.141 0 650 0C1009.29 0 1300 291.141 1300 650C1300.43 1009.29 1009.29 1300 650 1300Z" fill="#F7C0B5"/>
<mask id="mask0_32_1392" style="mask-type:alpha" maskUnits="userSpaceOnUse" x="0" y="0" width="1301" height="1300">
<path d="M650 1300C290.71 1300 0 1008.86 0 650C0 290.71 291.141 0 650 0C1009.29 0 1300 291.141 1300 650C1300.43 1009.29 1009.29 1300 650 1300Z" fill="#F7C0B5"/>
</mask>
<g mask="url(#mask0_32_1392)">
<path d="M1015.73 1197.33C1012.7 1199.5 1009.23 1201.66 1006.2 1203.83C1002.73 1206 999.698 1208.16 996.231 1209.9C993.198 1211.63 990.598 1213.36 987.565 1215.1C987.131 1215.53 986.698 1215.53 986.265 1215.96C976.298 1222.03 965.898 1227.66 955.498 1232.86C952.465 1234.6 948.998 1236.33 945.965 1237.63C945.965 1237.63 945.531 1238.06 945.098 1238.06C941.631 1239.8 938.165 1241.53 934.698 1243.26C927.765 1246.73 920.398 1249.76 913.465 1252.8C909.998 1254.53 906.098 1255.83 902.631 1257.13C899.165 1258.43 895.265 1260.16 891.798 1261.46C888.331 1262.76 884.431 1264.5 880.965 1265.8C880.965 1265.8 880.965 1265.8 880.531 1265.8C877.065 1267.1 873.165 1268.4 869.698 1269.7C861.898 1272.3 853.665 1274.9 845.865 1277.5C843.265 1278.36 840.231 1279.23 837.631 1280.1C829.398 1282.7 821.165 1284.86 812.931 1286.6C809.898 1287.46 806.865 1287.9 803.398 1288.76C795.598 1290.5 787.365 1292.23 779.565 1293.96C777.831 1294.4 776.531 1294.4 774.798 1294.83C772.198 1295.26 769.165 1295.7 766.565 1296.13C762.665 1296.56 759.198 1297.43 755.298 1297.86C753.565 1298.3 751.831 1298.3 750.098 1298.73C747.931 1299.16 745.331 1299.6 742.731 1299.6C735.798 1300.46 728.431 1301.33 721.498 1302.2C719.331 1302.63 716.731 1302.63 714.565 1303.06H714.131C711.098 1303.5 708.065 1303.5 705.031 1303.93C701.998 1304.36 698.965 1304.36 695.931 1304.36C694.198 1304.36 692.031 1304.8 690.298 1304.8C686.831 1304.8 683.798 1305.23 680.765 1305.23C676.431 1305.23 672.531 1305.66 668.198 1305.66C663.865 1305.66 659.965 1305.66 655.631 1305.66C652.598 1305.66 649.565 1305.66 646.531 1305.66C464.098 1303.06 299.431 1225.5 182.431 1102.43C182.431 1102.43 182.431 1102 181.998 1102C195.431 1075.56 245.265 1027.9 297.265 988.465C363.131 938.632 456.298 907.865 456.298 907.865C456.298 907.865 517.398 897.898 744.031 945.132C916.931 981.532 990.598 1129.3 1015.73 1197.33Z" fill="#FEE4BF"/>
<path d="M792.131 1065.17C783.031 1109.8 724.098 1136.23 624.864 1096.37C503.098 1046.97 456.298 907.865 456.298 907.865C449.798 808.199 434.631 722.832 434.631 722.832C575.464 710.699 741.864 875.365 741.864 875.365L760.931 956.832C762.664 963.765 766.131 969.832 771.331 974.165C780.431 989.765 798.198 1036.57 792.131 1065.17Z" fill="#FEE4BF"/>
<path d="M771.331 974.598C688.565 970.265 627.465 958.132 562.031 840.698C617.498 889.665 682.931 908.298 751.831 916.965L760.931 956.832C762.665 964.198 766.131 970.265 771.331 974.598Z" fill="#EFBDA5"/>
<path d="M942.498 452.432C950.298 488.832 954.198 518.298 932.964 615.365C911.731 712.432 952.464 809.498 850.198 898.332C781.298 958.132 660.831 969.398 564.631 903.965C532.131 881.865 502.231 851.098 477.964 810.798C458.898 779.165 436.798 749.265 412.098 721.965C377.864 684.698 336.698 609.732 357.064 477.132C389.998 261.332 603.631 236.632 729.731 260.465C855.831 284.298 921.264 356.232 942.498 452.432Z" fill="#FEE4BF"/>
<path d="M527.798 621.865C527.798 621.865 514.365 556.865 451.098 564.665C396.498 571.598 377.431 702.465 501.365 738.865" fill="#FEE4BF"/>
<path d="M497.465 679.498C497.465 679.498 481.865 669.532 483.598 652.198C486.198 631.832 483.598 619.265 474.065 615.365C450.231 605.398 445.465 633.132 446.331 636.598" stroke="#423232" stroke-width="13.4786" stroke-miterlimit="10" stroke-linecap="round" stroke-linejoin="round"/>
<path d="M828.098 721.532C828.098 721.532 844.564 722.398 860.164 703.765C868.831 693.365 876.198 680.365 871.431 676.465C866.664 672.132 788.231 684.265 783.031 694.665C777.831 705.065 808.164 721.532 828.098 721.532Z" fill="#EFBDA5"/>
<path d="M841.097 575.932C841.097 575.932 841.964 617.098 868.397 663.032C880.097 683.398 862.331 716.765 823.764 722.398" stroke="#423232" stroke-width="13.4786" stroke-miterlimit="10" stroke-linecap="round" stroke-linejoin="round"/>
<path opacity="0.42" d="M606.231 743.632C630.882 743.632 650.865 727.141 650.865 706.798C650.865 686.456 630.882 669.965 606.231 669.965C581.581 669.965 561.598 686.456 561.598 706.798C561.598 727.141 581.581 743.632 606.231 743.632Z" fill="#F2A5B2"/>
<path opacity="0.42" d="M926.031 670.832C924.731 695.098 925.165 718.932 923.431 742.765C904.365 738.432 890.498 724.132 890.498 707.232C890.498 689.032 905.664 674.298 926.031 670.832Z" fill="#F2A5B2"/>
<path d="M780.52 936C780.52 936 715.52 955.067 625.386 925.6C535.253 896.133 447.286 818.567 447.286 818.567C447.286 818.567 418.686 819 407.853 840.667C397.453 862.333 397.886 906.967 381.42 919.1C377.52 921.7 366.686 924.733 350.653 929.067C324.653 936.433 286.086 947.7 247.086 969.8C218.053 986.267 188.586 1008.37 163.886 1038.7C152.62 1052.57 142.653 1068.17 133.986 1085.93C65.5195 1225.03 94.9862 1420.03 94.9862 1420.03H1154.05C1154.05 1420.03 1123.29 1179.1 1056.99 1099.8C990.686 1020.5 864.153 956.367 826.886 939.467V914.333C827.32 914.333 804.353 929.5 780.52 936Z" fill="#48D89E"/>
<mask id="mask1_32_1392" style="mask-type:alpha" maskUnits="userSpaceOnUse" x="88" y="818" width="1067" height="603">
<path d="M780.52 936C780.52 936 715.52 955.067 625.386 925.6C535.253 896.133 447.286 818.567 447.286 818.567C447.286 818.567 418.686 819 407.853 840.667C397.453 862.333 397.886 906.967 381.42 919.1C377.52 921.7 366.686 924.733 350.653 929.067C324.653 936.433 286.086 947.7 247.086 969.8C218.053 986.267 188.586 1008.37 163.886 1038.7C152.62 1052.57 142.653 1068.17 133.986 1085.93C65.5195 1225.03 94.9862 1420.03 94.9862 1420.03H1154.05C1154.05 1420.03 1123.29 1179.1 1056.99 1099.8C990.686 1020.5 864.153 956.367 826.886 939.467V914.333C827.32 914.333 804.353 929.5 780.52 936Z" fill="#48D89E"/>
</mask>
<g mask="url(#mask1_32_1392)">
<path d="M265.719 1101.53C291.088 1101.53 311.653 1080.97 311.653 1055.6C311.653 1030.23 291.088 1009.67 265.719 1009.67C240.351 1009.67 219.786 1030.23 219.786 1055.6C219.786 1080.97 240.351 1101.53 265.719 1101.53Z" fill="#FCED7E"/>
<path d="M527.02 1080.3C552.388 1080.3 572.953 1059.73 572.953 1034.37C572.953 1009 552.388 988.433 527.02 988.433C501.652 988.433 481.086 1009 481.086 1034.37C481.086 1059.73 501.652 1080.3 527.02 1080.3Z" fill="#FCED7E"/>
<path d="M724.62 982.8C749.988 982.8 770.553 962.235 770.553 936.867C770.553 911.499 749.988 890.933 724.62 890.933C699.252 890.933 678.687 911.499 678.687 936.867C678.687 962.235 699.252 982.8 724.62 982.8Z" fill="#FCED7E"/>
<path d="M445.553 1305.2C470.921 1305.2 491.487 1284.64 491.487 1259.27C491.487 1233.9 470.921 1213.33 445.553 1213.33C420.185 1213.33 399.62 1233.9 399.62 1259.27C399.62 1284.64 420.185 1305.2 445.553 1305.2Z" fill="#FCED7E"/>
<path d="M980.286 1281.8C1005.65 1281.8 1026.22 1261.24 1026.22 1235.87C1026.22 1210.5 1005.65 1189.93 980.286 1189.93C954.918 1189.93 934.353 1210.5 934.353 1235.87C934.353 1261.24 954.918 1281.8 980.286 1281.8Z" fill="#FCED7E"/>
<path d="M727.219 1244.53C752.588 1244.53 773.153 1223.97 773.153 1198.6C773.153 1173.23 752.588 1152.67 727.219 1152.67C701.851 1152.67 681.286 1173.23 681.286 1198.6C681.286 1223.97 701.851 1244.53 727.219 1244.53Z" fill="#FCED7E"/>
<path d="M944.753 1058.2C970.121 1058.2 990.686 1037.63 990.686 1012.27C990.686 986.898 970.121 966.333 944.753 966.333C919.384 966.333 898.819 986.898 898.819 1012.27C898.819 1037.63 919.384 1058.2 944.753 1058.2Z" fill="#FCED7E"/>
</g>
<path d="M827.321 939.467C827.321 939.467 832.954 978.467 822.988 1000.57C806.954 1036.97 695.588 1078.57 560.821 1030.03C453.788 991.467 401.354 938.167 400.054 929.933" stroke="#329369" stroke-width="13.4786" stroke-miterlimit="10" stroke-linecap="round" stroke-linejoin="round"/>
<path d="M481.087 862.767C478.921 865.367 476.754 868.834 475.021 873.167C468.954 887.9 467.221 918.667 467.221 918.667" stroke="#329369" stroke-width="13.4786" stroke-miterlimit="10" stroke-linecap="round" stroke-linejoin="round"/>
<path d="M554.32 907.4C552.587 910.867 550.854 914.767 549.987 919.1C547.82 930.367 545.22 965.9 545.22 965.9" stroke="#329369" stroke-width="13.4786" stroke-miterlimit="10" stroke-linecap="round" stroke-linejoin="round"/>
<path d="M627.988 937.733C627.121 941.2 626.254 945.533 625.821 950.733C624.954 956.8 625.388 993.633 625.388 993.633" stroke="#329369" stroke-width="13.4786" stroke-miterlimit="10" stroke-linecap="round" stroke-linejoin="round"/>
<path d="M706.854 955.067C707.721 965.033 708.154 978.9 706.854 995.8" stroke="#329369" stroke-width="13.4786" stroke-miterlimit="10" stroke-linecap="round" stroke-linejoin="round"/>
<path d="M773.155 951.6C774.455 959.834 775.754 971.1 776.188 985.4" stroke="#329369" stroke-width="13.4786" stroke-miterlimit="10" stroke-linecap="round" stroke-linejoin="round"/>
<path d="M433.854 820.3C423.454 824.2 409.587 834.6 404.387 864.934" stroke="#329369" stroke-width="13.4786" stroke-miterlimit="10" stroke-linecap="round" stroke-linejoin="round"/>
<path d="M878.453 965.034C856.353 952.9 838.153 944.233 827.32 939.467V914.333" stroke="#329369" stroke-width="13.4786" stroke-miterlimit="10" stroke-linecap="round" stroke-linejoin="round"/>
<path d="M745.802 526.549C755.216 527.849 762.491 517.882 759.067 508.349C757.356 503.149 754.36 498.382 749.653 495.349C735.104 486.249 680.759 485.382 652.088 506.182C626.841 525.249 703.01 520.482 745.802 526.549Z" fill="#423232"/>
<path d="M864.333 531.315C856.63 531.315 851.923 521.349 855.775 513.115C857.914 508.782 860.91 504.882 865.189 502.716C878.454 496.215 913.971 500.116 929.804 522.216C943.925 541.716 899.85 530.882 864.333 531.315Z" fill="#423232"/>
<path d="M730.824 581.149C703.437 567.282 660.217 577.683 660.217 577.683" stroke="#423232" stroke-width="13.4786" stroke-miterlimit="10" stroke-linecap="round" stroke-linejoin="round"/>
<path d="M899.853 589.816C899.853 589.816 888.727 577.683 847.647 587.216" stroke="#423232" stroke-width="13.4786" stroke-miterlimit="10" stroke-linecap="round" stroke-linejoin="round"/>
<path d="M816.925 774.866C805.693 779.808 800.302 769.924 782.779 778.46C770.199 784.301 763.46 786.098 748.184 777.112C738.3 770.822 726.169 779.808 714.488 762.735" stroke="#423232" stroke-width="13.4786" stroke-miterlimit="10" stroke-linecap="round" stroke-linejoin="round"/>
<path d="M1052.43 935.089C1028.17 881.355 1009.53 888.722 1026.43 840.189C1043.33 792.089 1021.67 757.855 977.034 712.355C934.567 669.022 930.234 621.789 931.534 614.855C927.634 633.055 925.901 651.689 925.034 669.889C923.734 694.155 924.167 717.989 922.434 741.822C918.967 795.122 906.401 847.555 849.201 896.955C824.067 918.622 792.001 934.222 756.467 941.589C746.934 970.622 761.234 991.422 792.434 994.889C823.634 998.355 836.634 1045.16 907.267 1067.26C1013 1101.49 1076.7 988.822 1052.43 935.089Z" fill="#423232"/>
<path d="M854.834 410.756C863.934 415.522 871.734 411.189 876.501 401.656C926.767 393.856 938.467 494.389 940.201 500.456C941.934 506.956 942.801 525.156 939.334 574.989C937.167 602.722 1098.37 405.989 951.034 322.789C961.867 306.756 954.067 227.022 863.501 207.522C831.001 200.589 788.534 230.922 735.234 219.222C526.801 172.856 310.567 217.056 327.467 492.222C331.367 552.456 335.267 617.456 233.001 660.789C114.267 711.056 120.334 842.356 203.967 869.222C238.634 880.489 124.234 958.489 190.967 1027.82C225.634 1064.22 287.601 990.556 350.434 1030.42C445.334 1090.66 492.567 1063.36 511.201 1039.52C549.334 990.989 502.101 893.489 502.101 893.489C502.101 893.489 520.734 863.589 526.801 847.556C556.267 768.689 486.067 733.156 486.067 733.156C377.734 691.556 397.234 570.656 450.101 563.722C505.567 556.789 522.901 606.189 525.934 618.322C525.934 618.322 574.901 685.922 669.367 531.656C762.967 377.389 814.101 388.656 854.834 410.756Z" fill="#423232"/>
<path d="M467.544 705.467V779.134" stroke="#FFDE55" stroke-width="13.4786" stroke-miterlimit="10" stroke-linecap="round" stroke-linejoin="round"/>
<path d="M526.044 877.934C514.344 889.634 498.311 897 480.111 897C445.011 897 415.978 868.4 415.978 832.867C415.978 797.767 444.578 768.734 480.111 768.734C497.878 768.734 514.344 776.1 526.044 787.8C518.244 783.467 509.578 780.867 500.044 780.867C471.444 780.867 448.044 804.267 448.044 832.867C448.044 861.467 471.444 884.867 500.044 884.867C509.578 885.3 518.244 882.7 526.044 877.934Z" fill="#FFDE55"/>
<path d="M467.544 858.867C481.664 858.867 493.111 847.42 493.111 833.3C493.111 819.18 481.664 807.734 467.544 807.734C453.424 807.734 441.978 819.18 441.978 833.3C441.978 847.42 453.424 858.867 467.544 858.867Z" fill="#FF6B57"/>
<path d="M961.978 788.667C954.178 784.334 945.512 781.734 935.978 781.734C929.045 781.734 922.978 783.034 916.912 785.634C917.778 780.434 919.078 775.234 919.512 770.034C936.412 770.467 951.145 777.401 961.978 788.667Z" fill="#FFDE55"/>
<path d="M962.411 877.934C950.711 889.634 934.677 897 916.477 897C898.277 897 881.377 889.2 869.677 876.634C876.611 868.834 882.677 861.034 888.311 853.234C896.111 871.867 914.744 884.434 935.977 884.434C945.511 885.3 954.611 882.7 962.411 877.934Z" fill="#FFDE55"/>
<path d="M929.478 833.301C929.478 847.601 918.211 858.867 903.911 858.867C898.278 858.867 893.078 857.134 888.744 853.667C898.711 838.934 906.078 823.767 910.844 809.034C921.244 811.634 929.478 821.601 929.478 833.301Z" fill="#FF6B57"/>
</g>
</svg>
