<svg width="1300" height="1300" viewBox="0 0 1300 1300" fill="none" xmlns="http://www.w3.org/2000/svg">
<path d="M650 1300C290.71 1300 0 1008.86 0 650C0 290.71 291.141 0 650 0C1009.29 0 1300 291.141 1300 650C1300.43 1009.29 1009.29 1300 650 1300Z" fill="#F4DA92"/>
<mask id="mask0_32_1442" style="mask-type:alpha" maskUnits="userSpaceOnUse" x="0" y="0" width="1301" height="1300">
<path d="M650 1300C290.71 1300 0 1008.86 0 650C0 290.71 291.141 0 650 0C1009.29 0 1300 291.141 1300 650C1300.43 1009.29 1009.29 1300 650 1300Z" fill="#F7C0B5"/>
</mask>
<g mask="url(#mask0_32_1442)">
<path d="M1015.73 1197.33C1012.7 1199.5 1009.23 1201.66 1006.2 1203.83C1002.73 1206 999.698 1208.16 996.231 1209.9C993.198 1211.63 990.598 1213.36 987.564 1215.1C987.131 1215.53 986.698 1215.53 986.265 1215.96C976.298 1222.03 965.898 1227.66 955.498 1232.86C952.465 1234.6 948.998 1236.33 945.965 1237.63C945.965 1237.63 945.531 1238.06 945.098 1238.06C941.631 1239.8 938.165 1241.53 934.698 1243.26C927.765 1246.73 920.398 1249.76 913.465 1252.8C909.998 1254.53 906.098 1255.83 902.631 1257.13C899.165 1258.43 895.265 1260.16 891.798 1261.46C888.331 1262.76 884.431 1264.5 880.965 1265.8C880.965 1265.8 880.965 1265.8 880.531 1265.8C877.064 1267.1 873.165 1268.4 869.698 1269.7C861.898 1272.3 853.665 1274.9 845.864 1277.5C843.265 1278.36 840.231 1279.23 837.631 1280.1C829.398 1282.7 821.165 1284.86 812.931 1286.6C809.898 1287.46 806.864 1287.9 803.398 1288.76C795.598 1290.5 787.364 1292.23 779.564 1293.96C777.831 1294.4 776.531 1294.4 774.798 1294.83C772.198 1295.26 769.165 1295.7 766.564 1296.13C762.665 1296.56 759.198 1297.43 755.298 1297.86C753.565 1298.3 751.831 1298.3 750.098 1298.73C747.931 1299.16 745.331 1299.6 742.731 1299.6C735.798 1300.46 728.431 1301.33 721.498 1302.2C719.331 1302.63 716.731 1302.63 714.565 1303.06H714.131C711.098 1303.5 708.064 1303.5 705.031 1303.93C701.998 1304.36 698.965 1304.36 695.931 1304.36C694.198 1304.36 692.031 1304.8 690.298 1304.8C686.831 1304.8 683.798 1305.23 680.765 1305.23C676.431 1305.23 672.531 1305.66 668.198 1305.66C663.865 1305.66 659.965 1305.66 655.631 1305.66C652.598 1305.66 649.565 1305.66 646.531 1305.66C464.098 1303.06 299.431 1225.5 182.431 1102.43C182.431 1102.43 182.431 1102 181.998 1102C195.431 1075.56 245.265 1027.9 297.265 988.465C363.131 938.631 456.298 907.865 456.298 907.865C456.298 907.865 517.398 897.898 744.031 945.131C916.931 981.531 990.598 1129.3 1015.73 1197.33Z" fill="#FEE4BF"/>
<path d="M792.131 1065.16C783.031 1109.8 724.098 1136.23 624.864 1096.36C503.098 1046.96 456.298 907.865 456.298 907.865C449.798 808.198 434.631 722.831 434.631 722.831C575.465 710.698 741.864 875.365 741.864 875.365L760.931 956.831C762.664 963.764 766.131 969.831 771.331 974.165C780.431 989.764 798.198 1036.56 792.131 1065.16Z" fill="#FEE4BF"/>
<path d="M771.331 974.598C688.564 970.265 627.464 958.131 562.031 840.698C617.498 889.665 682.931 908.298 751.831 916.965L760.931 956.831C762.664 964.198 766.131 970.265 771.331 974.598Z" fill="#EFBDA5"/>
<path d="M942.498 452.431C950.298 488.831 954.198 518.298 932.964 615.365C911.731 712.431 952.464 809.498 850.198 898.331C781.298 958.131 660.831 969.398 564.631 903.965C532.131 881.865 502.231 851.098 477.964 810.798C458.898 779.165 436.798 749.265 412.098 721.965C377.864 684.698 336.698 609.731 357.065 477.131C389.998 261.331 603.631 236.631 729.731 260.465C855.831 284.298 921.264 356.231 942.498 452.431Z" fill="#FEE4BF"/>
<path d="M527.798 621.865C527.798 621.865 514.364 556.865 451.098 564.665C396.498 571.598 377.431 702.465 501.364 738.865" fill="#FEE4BF"/>
<path d="M497.464 679.498C497.464 679.498 481.864 669.531 483.598 652.198C486.198 631.831 483.598 619.265 474.065 615.365C450.231 605.398 445.465 633.131 446.331 636.598" stroke="#423232" stroke-width="13.4786" stroke-miterlimit="10" stroke-linecap="round" stroke-linejoin="round"/>
<path d="M828.098 721.531C828.098 721.531 844.564 722.398 860.164 703.765C868.831 693.365 876.198 680.365 871.431 676.465C866.664 672.131 788.231 684.265 783.031 694.665C777.831 705.065 808.164 721.531 828.098 721.531Z" fill="#EFBDA5"/>
<path d="M841.098 575.931C841.098 575.931 841.964 617.098 868.398 663.031C880.098 683.398 862.331 716.765 823.765 722.398" stroke="#423232" stroke-width="13.4786" stroke-miterlimit="10" stroke-linecap="round" stroke-linejoin="round"/>
<path opacity="0.42" d="M606.231 743.631C630.881 743.631 650.864 727.14 650.864 706.798C650.864 686.455 630.881 669.965 606.231 669.965C581.581 669.965 561.598 686.455 561.598 706.798C561.598 727.14 581.581 743.631 606.231 743.631Z" fill="#F2A5B2"/>
<path opacity="0.42" d="M926.031 670.831C924.731 695.098 925.165 718.931 923.431 742.765C904.365 738.431 890.498 724.131 890.498 707.231C890.498 689.031 905.664 674.298 926.031 670.831Z" fill="#F2A5B2"/>
<path d="M1158.93 1465.49H63.462C63.462 1465.49 69.9619 1264.42 135.829 1120.99C185.662 1012.65 303.095 952.421 390.629 921.221C415.329 912.554 437.862 906.054 455.195 901.287C455.195 903.454 455.629 905.187 455.629 907.354C455.629 907.354 502.429 1046.45 624.195 1095.85C723.429 1136.15 782.362 1109.29 791.462 1064.65C797.095 1036.05 779.329 989.254 770.229 974.087C765.029 969.754 761.562 963.254 759.829 956.754L756.362 942.454C764.595 940.721 772.395 938.554 780.195 935.954C782.795 935.087 784.962 934.221 787.562 933.354C843.462 948.087 927.528 983.187 1026.76 1066.39C1139 1159.99 1158.93 1465.49 1158.93 1465.49Z" fill="#BEE3EB"/>
<path d="M586.495 1140.92C436.995 1073.75 378.928 953.721 390.195 921.221C390.195 921.221 390.195 920.787 390.628 920.354C398.428 904.321 410.995 891.321 426.595 882.221C435.261 877.021 444.795 872.254 452.595 869.654C453.028 875.72 454.761 894.787 455.195 901.287C455.195 903.454 455.628 905.187 455.628 907.354C455.628 907.354 483.361 1010.92 605.128 1060.32C704.361 1100.62 765.895 1074.19 772.395 1029.12C779.761 979.287 751.595 943.32 751.595 943.32C759.828 941.587 772.828 938.554 780.628 935.954C799.695 958.921 819.195 981.887 826.561 1042.55C836.961 1129.65 741.195 1210.69 586.495 1140.92Z" fill="white"/>
<path d="M277.962 1465.49L258.462 1304.72" stroke="#544D4D" stroke-width="13.4786" stroke-miterlimit="10" stroke-linecap="round" stroke-linejoin="round"/>
<path d="M1034.56 1250.12C1034.56 1250.12 1021.56 1281.75 1025.46 1313.39C1029.36 1345.02 1040.63 1391.39 1024.6 1465.49" stroke="#544D4D" stroke-width="13.4786" stroke-miterlimit="10" stroke-linecap="round" stroke-linejoin="round"/>
<path d="M683.943 619.439C673.543 619.006 665.743 610.339 666.61 599.939L667.043 587.806C667.476 577.406 676.143 569.606 686.543 570.472C696.943 570.906 704.743 579.572 703.876 589.972L703.443 602.106C703.01 612.072 694.343 619.872 683.943 619.439Z" fill="#423232"/>
<path d="M866.376 625.939C856.843 625.505 849.476 617.272 849.909 607.739L850.343 596.472C850.776 586.939 859.009 579.572 868.543 580.005C878.076 580.439 885.443 588.672 885.009 598.205L884.576 609.472C884.143 619.005 875.909 626.372 866.376 625.939Z" fill="#423232"/>
<path d="M725.977 594.305C725.977 594.305 714.71 578.272 695.21 575.239C679.177 572.639 661.41 580.439 658.81 589.539" stroke="#423232" stroke-width="13.4786" stroke-miterlimit="10" stroke-linecap="round" stroke-linejoin="round"/>
<path d="M853.81 598.206C853.81 598.206 853.81 584.339 873.743 584.339C890.21 584.339 897.143 599.506 897.143 599.506" stroke="#423232" stroke-width="13.4786" stroke-miterlimit="10" stroke-linecap="round" stroke-linejoin="round"/>
<path d="M743.743 524.539C752.843 527.572 761.943 519.339 760.209 509.372C759.343 504.172 757.176 498.972 752.843 495.072C739.843 483.372 686.109 472.972 653.609 488.139C625.009 502.005 702.143 510.672 743.743 524.539Z" fill="#423232"/>
<path d="M873.308 531.472C865.942 534.072 858.141 526.272 859.441 517.172C859.875 512.406 861.608 507.639 865.075 504.172C875.475 493.772 911.008 485.539 933.542 501.572C953.042 515.006 907.108 518.906 873.308 531.472Z" fill="#423232"/>
<path d="M816.925 774.866C805.693 779.808 800.302 769.924 782.78 778.46C770.199 784.301 763.46 786.098 748.184 777.112C738.3 770.822 726.169 779.808 714.488 762.735" stroke="#423232" stroke-width="13.4786" stroke-miterlimit="10" stroke-linecap="round" stroke-linejoin="round"/>
<path d="M766.187 939.663C797.82 931.43 825.987 917.13 848.954 897.197C951.22 808.797 910.487 711.296 931.72 614.23C938.654 583.03 942.554 558.763 945.154 539.263C941.687 538.83 937.787 538.396 933.887 537.53C918.287 535.363 907.887 521.063 909.62 505.463C910.487 498.963 910.92 492.463 911.354 485.53C909.62 485.096 910.054 485.097 908.32 485.097C905.72 493.33 902.687 501.996 900.52 510.23C896.62 523.23 884.054 531.463 871.054 530.597H870.62C855.453 529.297 844.187 516.73 844.187 501.563C844.62 490.73 844.62 479.896 845.054 469.063C843.32 468.63 844.187 469.063 842.454 468.63C840.287 479.896 838.12 491.163 835.954 502.863C833.353 517.163 820.787 527.13 806.487 526.263C769.22 524.53 732.387 524.097 699.02 524.097C684.287 524.097 672.154 513.263 670.854 498.53C668.687 479.463 665.654 460.396 660.454 440.896C654.82 458.23 654.82 476.43 655.687 495.063C656.554 511.096 643.987 524.53 627.954 524.963C589.387 525.83 563.387 527.13 559.054 527.563C560.354 586.93 546.92 652.796 523.087 608.163C521.354 605.13 520.054 602.096 518.32 598.196C508.354 580.43 488.42 559.196 450.72 563.963C397.854 570.896 378.354 693.53 489.287 734.263C489.72 743.363 491.887 752.463 495.787 761.996C512.687 803.163 520.054 837.396 520.054 865.563C520.054 1028.93 252.687 960.896 177.287 812.696C148.254 755.063 147.82 685.73 202.854 612.93C337.62 447.83 297.32 510.663 327.22 412.73C376.187 252.396 487.987 201.263 636.187 202.563C636.187 202.563 882.754 202.563 948.187 262.363C1013.62 322.163 991.087 508.93 985.453 525.83C983.72 531.03 979.387 534.063 974.62 536.23C972.02 621.596 980.687 651.496 1011.02 720.396C1077.32 872.063 952.087 1016.36 766.187 939.663Z" fill="#423232"/>
<path d="M523.087 608.596C521.353 605.562 520.053 602.529 518.32 598.629C520.053 602.096 521.787 605.562 523.087 608.596Z" fill="#FEE4BF"/>
<path opacity="0.6" d="M865.083 677.253C865.083 677.253 870.283 706.72 904.516 721.453C913.183 724.92 922.283 719.286 922.283 709.753C921.85 709.753 867.25 680.72 865.083 677.253Z" fill="#B7AEA9"/>
<path opacity="0.6" d="M782.75 606.187C782.75 606.187 810.483 578.453 824.35 575.42L787.516 584.086L782.75 606.187Z" fill="#B7AEA9"/>
<path opacity="0.6" d="M597.717 677.254C597.717 677.254 613.75 713.653 661.85 722.32C709.95 731.42 753.717 696.754 774.083 638.687C774.083 638.687 757.617 692.42 691.75 702.387C626.317 713.22 597.717 677.254 597.717 677.254Z" fill="#B7AEA9"/>
<path opacity="0.29" d="M675.283 482.687C614.183 482.687 564.35 533.82 563.916 596.22C563.916 625.687 574.75 652.554 592.516 672.054L749.816 513.02C730.316 493.954 704.316 482.687 675.283 482.687Z" fill="#DBC3ED"/>
<path opacity="0.23" d="M749.817 513.02L592.517 672.054C612.45 694.154 640.617 707.587 671.817 707.587C732.05 707.587 781.45 657.754 783.183 595.787C784.05 563.287 771.05 533.82 749.817 513.02Z" fill="#C4ADD8"/>
<path opacity="0.29" d="M928.783 482.687C882.416 482.687 843.416 533.82 841.683 596.22C840.816 621.354 846.45 644.32 855.983 662.954L993.35 526.887C979.05 500.02 955.65 482.687 928.783 482.687Z" fill="#DBC3ED"/>
<path opacity="0.23" d="M993.349 526.453L855.983 662.52C870.283 689.82 893.683 707.586 920.983 707.586C966.483 707.586 1005.48 657.753 1008.08 595.786C1008.95 570.22 1003.32 545.953 993.349 526.453Z" fill="#C4ADD8"/>
<path d="M783.183 596.22C781.883 658.187 732.049 708.02 671.816 708.02C611.583 708.02 563.483 658.187 563.483 596.22C563.916 533.82 613.749 482.687 674.849 482.687C735.949 482.687 784.916 533.82 783.183 596.22Z" stroke="#4EC2DD" stroke-width="13.4786" stroke-miterlimit="10" stroke-linecap="round" stroke-linejoin="round"/>
<path d="M1008.08 596.22C1005.48 658.187 966.483 708.02 920.983 708.02C875.483 708.02 839.95 658.187 841.683 596.22C843.416 533.82 882.416 482.687 928.783 482.687C975.15 482.687 1010.68 533.82 1008.08 596.22Z" stroke="#4EC2DD" stroke-width="13.4786" stroke-miterlimit="10" stroke-linecap="round" stroke-linejoin="round"/>
<path d="M564.783 584.086H503.25" stroke="#4EC2DD" stroke-width="13.4786" stroke-miterlimit="10" stroke-linecap="round" stroke-linejoin="round"/>
<path d="M783.616 584.086C783.616 584.086 835.183 564.153 841.683 584.086" stroke="#4EC2DD" stroke-width="13.4786" stroke-miterlimit="10" stroke-linecap="round" stroke-linejoin="round"/>
</g>
</svg>
