<svg width="1300" height="1300" viewBox="0 0 1300 1300" fill="none" xmlns="http://www.w3.org/2000/svg">
<path d="M650 1300C290.71 1300 0 1008.86 0 650C0 290.71 291.141 0 650 0C1009.29 0 1300 291.141 1300 650C1300.43 1009.29 1009.29 1300 650 1300Z" fill="#B5E2C9"/>
<mask id="mask0_32_1482" style="mask-type:alpha" maskUnits="userSpaceOnUse" x="0" y="0" width="1300" height="1300">
<path d="M650 1300C290.71 1300 0 1008.86 0 650C0 290.71 291.141 0 650 0C1009.29 0 1300 291.141 1300 650C1300.43 1009.29 1009.29 1300 650 1300Z" fill="#F7C0B5"/>
</mask>
<g mask="url(#mask0_32_1482)">
<path d="M1015.73 1197.33C1012.7 1199.5 1009.23 1201.66 1006.2 1203.83C1002.73 1206 999.698 1208.16 996.231 1209.9C993.198 1211.63 990.598 1213.36 987.565 1215.1C987.131 1215.53 986.698 1215.53 986.265 1215.96C976.298 1222.03 965.898 1227.66 955.498 1232.86C952.465 1234.6 948.998 1236.33 945.965 1237.63C945.965 1237.63 945.531 1238.06 945.098 1238.06C941.631 1239.8 938.165 1241.53 934.698 1243.26C927.765 1246.73 920.398 1249.76 913.465 1252.8C909.998 1254.53 906.098 1255.83 902.631 1257.13C899.165 1258.43 895.265 1260.16 891.798 1261.46C888.331 1262.76 884.431 1264.5 880.965 1265.8C880.965 1265.8 880.965 1265.8 880.531 1265.8C877.065 1267.1 873.165 1268.4 869.698 1269.7C861.898 1272.3 853.665 1274.9 845.865 1277.5C843.265 1278.36 840.231 1279.23 837.631 1280.1C829.398 1282.7 821.165 1284.86 812.931 1286.6C809.898 1287.46 806.865 1287.9 803.398 1288.76C795.598 1290.5 787.365 1292.23 779.565 1293.96C777.831 1294.4 776.531 1294.4 774.798 1294.83C772.198 1295.26 769.165 1295.7 766.565 1296.13C762.665 1296.56 759.198 1297.43 755.298 1297.86C753.565 1298.3 751.831 1298.3 750.098 1298.73C747.931 1299.16 745.331 1299.6 742.731 1299.6C735.798 1300.46 728.431 1301.33 721.498 1302.2C719.331 1302.63 716.731 1302.63 714.565 1303.06H714.131C711.098 1303.5 708.065 1303.5 705.031 1303.93C701.998 1304.36 698.965 1304.36 695.931 1304.36C694.198 1304.36 692.031 1304.8 690.298 1304.8C686.831 1304.8 683.798 1305.23 680.765 1305.23C676.431 1305.23 672.531 1305.66 668.198 1305.66C663.865 1305.66 659.965 1305.66 655.631 1305.66C652.598 1305.66 649.565 1305.66 646.531 1305.66C464.098 1303.06 299.431 1225.5 182.431 1102.43C182.431 1102.43 182.431 1102 181.998 1102C195.431 1075.56 245.265 1027.9 297.265 988.465C363.131 938.631 456.298 907.865 456.298 907.865C456.298 907.865 517.398 897.898 744.031 945.131C916.931 981.531 990.598 1129.3 1015.73 1197.33Z" fill="#FEE4BF"/>
<path d="M792.132 1065.16C783.032 1109.8 724.098 1136.23 624.865 1096.36C503.098 1046.96 456.298 907.865 456.298 907.865C449.799 808.198 434.632 722.831 434.632 722.831C575.465 710.698 741.865 875.365 741.865 875.365L760.932 956.831C762.665 963.764 766.132 969.831 771.332 974.165C780.432 989.764 798.198 1036.56 792.132 1065.16Z" fill="#FEE4BF"/>
<path d="M771.331 974.598C688.565 970.265 627.465 958.131 562.031 840.698C617.498 889.665 682.931 908.298 751.831 916.965L760.931 956.831C762.665 964.198 766.131 970.265 771.331 974.598Z" fill="#EFBDA5"/>
<path d="M942.498 452.431C950.298 488.831 954.198 518.298 932.965 615.365C911.731 712.431 952.464 809.498 850.198 898.331C781.298 958.131 660.831 969.398 564.631 903.965C532.131 881.865 502.231 851.098 477.965 810.798C458.898 779.165 436.798 749.265 412.098 721.965C377.865 684.698 336.698 609.731 357.065 477.131C389.998 261.331 603.631 236.631 729.731 260.465C855.831 284.298 921.265 356.231 942.498 452.431Z" fill="#FEE4BF"/>
<path d="M527.797 621.865C527.797 621.865 514.364 556.865 451.097 564.665C396.497 571.598 377.431 702.465 501.364 738.865" fill="#FEE4BF"/>
<path d="M497.465 679.498C497.465 679.498 481.865 669.531 483.598 652.198C486.198 631.831 483.598 619.265 474.065 615.365C450.231 605.398 445.465 633.131 446.331 636.598" stroke="#423232" stroke-width="13.4786" stroke-miterlimit="10" stroke-linecap="round" stroke-linejoin="round"/>
<path d="M828.097 721.531C828.097 721.531 844.564 722.398 860.164 703.765C868.831 693.365 876.197 680.365 871.431 676.465C866.664 672.131 788.231 684.265 783.031 694.665C777.831 705.065 808.164 721.531 828.097 721.531Z" fill="#EFBDA5"/>
<path d="M841.098 575.931C841.098 575.931 841.965 617.098 868.398 663.031C880.098 683.398 862.331 716.765 823.765 722.398" stroke="#423232" stroke-width="13.4786" stroke-miterlimit="10" stroke-linecap="round" stroke-linejoin="round"/>
<path opacity="0.42" d="M606.232 743.631C630.883 743.631 650.866 727.14 650.866 706.798C650.866 686.455 630.883 669.965 606.232 669.965C581.582 669.965 561.599 686.455 561.599 706.798C561.599 727.14 581.582 743.631 606.232 743.631Z" fill="#F2A5B2"/>
<path opacity="0.42" d="M926.031 670.831C924.731 695.098 925.164 718.931 923.431 742.765C904.364 738.431 890.498 724.131 890.498 707.231C890.498 689.031 905.664 674.298 926.031 670.831Z" fill="#F2A5B2"/>
<path d="M1159.61 1463.81H32.081C32.081 1463.81 28.6143 1190.81 125.248 1063.84C195.881 970.672 324.581 945.972 403.448 923.005C423.814 917.372 441.581 910.872 456.314 906.972C461.081 919.972 509.181 1047.37 624.448 1094.17C723.681 1134.47 782.614 1107.61 791.714 1062.97C797.348 1034.37 779.581 987.572 770.481 972.405C765.281 968.072 761.814 961.572 760.081 955.072L756.614 940.772C764.414 939.038 771.781 936.872 779.581 934.705C783.481 935.572 787.381 936.438 791.281 937.305C847.181 950.738 963.314 953.338 1060.38 1035.24C1173.48 1128.84 1159.61 1463.81 1159.61 1463.81Z" fill="#444444"/>
<path d="M741.015 1169.57C713.282 1174.77 526.082 1161.77 429.015 1032.2C389.148 978.905 396.515 929.505 409.082 905.672C419.915 884.872 444.615 857.138 452.415 857.572V858.005C593.248 968.072 773.082 936.872 780.448 934.705C782.615 933.838 785.215 933.405 787.382 932.538C812.082 946.405 841.982 979.772 839.815 1035.67C836.782 1114.54 760.948 1163.51 741.015 1169.57Z" fill="white"/>
<path d="M409.081 916.938C409.081 916.938 363.148 913.472 341.914 945.972C320.681 978.472 368.781 989.738 391.314 981.072C391.314 981.072 354.914 1000.57 367.914 1031.34C380.914 1062.1 422.514 1044.34 422.514 1044.34C422.514 1044.34 386.114 1084.2 416.881 1114.1C447.648 1144 483.614 1114.1 483.614 1114.1C483.614 1114.1 464.114 1159.6 496.614 1176.5C529.114 1193.4 554.248 1148.77 554.248 1148.77C554.248 1148.77 543.848 1195.14 575.481 1212.04C607.114 1228.94 629.214 1189.5 633.981 1174.77C633.981 1174.77 633.981 1224.17 678.614 1225.9C723.248 1227.64 718.481 1143.14 718.481 1143.14L409.081 916.938Z" fill="white"/>
<path d="M751.415 1159.6C751.415 1159.6 765.282 1192.54 793.448 1190.8C821.615 1189.5 828.548 1157.87 815.982 1131C815.982 1131 839.815 1147.04 864.515 1131C889.648 1114.97 867.115 1076.4 853.248 1071.2C853.248 1071.2 893.548 1073.37 891.382 1042.6C889.215 1011.84 854.548 1007.94 854.548 1007.94C854.548 1007.94 884.448 1005.77 885.748 981.505C887.048 957.238 847.182 934.705 791.282 937.305C791.282 937.305 810.348 1006.2 791.715 1063.4C773.948 1119.74 751.415 1159.6 751.415 1159.6Z" fill="white"/>
<path d="M437.248 871.005C437.248 871.005 406.482 871.005 380.482 887.472C347.548 907.838 370.948 948.572 418.182 934.272C465.415 919.972 437.248 871.005 437.248 871.005Z" fill="white"/>
<path d="M834.614 951.172C834.614 951.172 866.681 945.972 859.748 932.538C852.814 919.972 826.814 912.605 821.614 915.638C812.081 921.272 799.948 927.772 787.381 931.672C754.014 942.505 825.514 957.672 834.614 951.172Z" fill="white"/>
<path d="M723.682 1153.97C723.682 1153.97 686.415 1254.07 714.148 1271.84C741.882 1289.61 740.148 1176.94 740.148 1176.94C740.148 1176.94 762.248 1268.81 797.782 1258.84C832.882 1248.44 747.515 1149.21 741.015 1147.47" stroke="white" stroke-width="13.4786" stroke-miterlimit="10" stroke-linecap="round"/>
<path d="M272.148 962.872C272.148 962.872 300.748 1225.47 53.7475 1245.4C53.7475 1245.4 13.8809 1113.67 89.2809 1014C159.048 921.272 272.148 962.872 272.148 962.872Z" fill="#D8D8D8"/>
<path d="M247.881 956.805C210.614 949.872 139.114 947.705 88.8477 1014C61.9811 1049.97 49.4144 1089.84 45.0811 1126.67C77.5811 1125.37 110.081 1119.74 141.281 1107.6C204.981 1083.34 239.214 1023.1 247.881 956.805Z" fill="#D8D8D8"/>
<path d="M167.282 1029.17C194.148 1011.41 216.682 985.405 228.382 953.772C188.948 950.738 131.315 957.672 88.8483 1013.57C82.7816 1021.81 77.5816 1030.04 72.8149 1038.27C101.848 1059.94 137.815 1047.81 167.282 1029.17Z" fill="#F7F7F7"/>
<path d="M272.147 962.872C272.147 962.872 263.047 959.405 247.881 956.805C239.214 1023.54 204.981 1083.77 141.281 1107.61C110.081 1119.74 78.0141 1125.81 45.0807 1126.67C36.8474 1191.67 53.3141 1245.41 53.3141 1245.41C300.747 1225.47 272.147 962.872 272.147 962.872Z" fill="#A8A8A8"/>
<path d="M948.146 971.538C948.146 971.538 973.713 1063.84 1027.01 1132.31C1061.25 1176.07 1097.65 1210.31 1149.21 1235.44C1149.21 1235.44 1174.78 1113.67 1124.51 1040.44C1054.75 938.172 948.146 971.538 948.146 971.538Z" fill="#D8D8D8"/>
<path d="M968.08 967.638C955.513 969.372 948.146 971.538 948.146 971.538C948.146 971.538 973.713 1063.84 1027.01 1132.3C1061.25 1176.07 1097.65 1210.3 1149.21 1235.44C1149.21 1235.44 1160.48 1181.71 1153.11 1124.07C1119.75 1114.11 1088.11 1099.8 1059.95 1081.17C1018.35 1054.74 980.213 1014.87 968.08 967.638Z" fill="#A8A8A8"/>
<path d="M968.082 967.638C979.782 1014.87 1018.35 1054.74 1059.95 1081.17C1088.12 1099.37 1119.75 1114.1 1153.12 1124.07C1149.65 1095.04 1140.98 1065.14 1124.52 1040.44C1073.38 965.472 1002.32 963.305 968.082 967.638Z" fill="#D8D8D8"/>
<path d="M1118.01 1031.77C1081.18 983.238 1035.68 969.372 1001.01 966.772C1022.25 1012.71 1069.48 1033.07 1118.01 1031.77Z" fill="#F7F7F7"/>
<path d="M433.781 871.005C433.781 871.005 416.881 898.738 415.581 925.605C414.281 952.038 464.981 1043.47 561.614 1093.3C666.481 1147.47 738.414 1137.94 738.414 1137.94C738.414 1137.94 807.314 1104.14 827.68 1044.34C845.88 990.172 824.647 942.505 815.547 926.038" stroke="#D8D8D8" stroke-width="13.4786" stroke-miterlimit="10" stroke-linecap="round"/>
<path d="M738.848 1137.94C738.848 1137.94 743.615 1016.61 730.182 945.538" stroke="#D8D8D8" stroke-width="13.4786" stroke-miterlimit="10" stroke-linecap="round"/>
<path d="M736.682 1022.24C748.408 1022.24 757.915 1012.73 757.915 1001C757.915 989.278 748.408 979.772 736.682 979.772C724.955 979.772 715.448 989.278 715.448 1001C715.448 1012.73 724.955 1022.24 736.682 1022.24Z" fill="#F4D16C"/>
<path d="M739.281 1087.24C751.008 1087.24 760.514 1077.73 760.514 1066C760.514 1054.28 751.008 1044.77 739.281 1044.77C727.554 1044.77 718.048 1054.28 718.048 1066C718.048 1077.73 727.554 1087.24 739.281 1087.24Z" fill="#F4D16C"/>
<path d="M715.185 586.763C715.185 586.763 684.851 587.197 654.084 564.23" stroke="#423232" stroke-width="13.4786" stroke-miterlimit="10" stroke-linecap="round" stroke-linejoin="round"/>
<path d="M843.884 593.697C843.884 593.697 875.084 588.063 884.184 575.93" stroke="#423232" stroke-width="13.4786" stroke-miterlimit="10" stroke-linecap="round" stroke-linejoin="round"/>
<path d="M735.985 553.397C744.219 558.163 754.619 551.663 755.052 541.697C755.052 536.497 754.185 530.863 750.719 526.097C740.319 512.23 689.619 490.997 654.519 500.097C624.185 507.897 698.285 531.73 735.985 553.397Z" fill="#423232"/>
<path d="M869.02 558.597C862.953 563.363 852.987 557.73 851.687 548.63C850.82 543.863 851.253 538.663 853.42 534.33C860.353 521.33 892.42 503.563 918.42 512.23C940.953 520.463 898.053 537.363 869.02 558.597Z" fill="#423232"/>
<path d="M666.218 572.03C662.751 575.063 660.585 579.83 660.151 584.596L659.718 596.73C659.285 607.13 667.085 615.796 677.051 616.23C687.451 616.663 696.118 608.863 696.551 598.896L696.985 586.763C696.985 586.33 696.985 585.896 696.985 585.463C685.718 584.596 675.751 579.83 666.218 572.03Z" fill="#423232"/>
<path d="M843.885 592.83C843.885 593.263 843.885 593.263 843.885 593.697L843.452 604.963C843.019 614.497 850.386 622.73 859.919 623.163C869.452 623.597 877.686 616.23 878.119 606.697L878.552 595.43C878.986 591.097 877.252 587.197 875.086 584.163C865.552 589.797 855.152 591.097 843.885 592.83Z" fill="#423232"/>
<path d="M816.925 774.866C805.693 779.808 800.302 769.924 782.779 778.46C770.199 784.301 763.46 786.098 748.184 777.112C738.3 770.822 726.169 779.808 714.488 762.735" stroke="#423232" stroke-width="13.4786" stroke-miterlimit="10" stroke-linecap="round" stroke-linejoin="round"/>
<path d="M891.778 209.483C891.778 209.483 870.111 138.85 780.844 132.783C682.044 126.283 648.244 185.65 648.244 185.65C648.244 185.65 573.278 122.817 466.678 171.783C331.044 234.183 361.378 364.617 361.378 364.617C361.378 364.617 215.344 566.117 265.611 820.917C265.611 820.917 427.678 891.55 486.611 873.35L473.178 728.617C379.144 682.683 399.511 571.317 449.778 564.817C488.344 560.05 508.711 582.583 518.244 600.783C519.544 602.517 543.378 595.583 546.844 537.517C552.911 445.65 575.878 349.883 769.578 411.417C788.644 417.483 807.278 429.183 825.911 427.017C857.111 423.983 928.178 382.383 943.778 469.917C944.211 471.65 944.211 473.383 944.644 475.55V475.983C944.644 476.85 945.078 477.717 945.078 478.583C945.078 479.017 945.078 479.883 945.511 480.75C945.511 481.617 945.944 482.917 945.944 483.783C945.944 484.65 945.944 485.517 946.378 486.383C946.378 487.25 946.378 487.683 946.378 488.55C946.378 489.85 946.378 491.15 946.811 492.45C946.811 492.883 946.811 493.317 946.811 494.183C946.811 495.483 946.811 496.783 946.811 497.65C946.811 498.083 946.811 498.517 946.811 498.95C946.811 500.683 946.811 501.983 946.811 503.717C946.811 504.15 946.811 504.583 946.811 505.45C946.811 507.183 946.811 508.917 946.811 510.65V511.083C946.811 512.817 946.811 514.55 946.378 516.717C946.378 517.15 946.378 517.583 946.378 518.017C946.378 520.183 945.944 521.917 945.944 524.083C945.944 524.517 945.944 524.95 945.944 525.383C945.944 527.55 945.511 529.717 945.511 531.883C945.511 532.317 945.511 532.317 945.511 532.75C945.078 534.917 945.078 537.517 944.644 540.117C944.644 540.55 944.644 540.983 944.644 541.417C944.211 544.017 944.211 546.617 943.778 549.217C941.178 567.417 937.278 589.083 931.644 615.95C927.744 634.583 926.011 652.783 924.711 671.417C923.411 695.683 923.844 719.517 922.111 743.35C919.511 782.35 912.144 820.917 885.711 858.183C924.278 872.917 987.544 877.25 987.544 877.25C1055.14 762.417 1006.61 530.15 988.411 456.05C991.011 453.883 1063.38 214.25 891.778 209.483Z" fill="#423232"/>
</g>
</svg>
