<svg width="1300" height="1300" viewBox="0 0 1300 1300" fill="none" xmlns="http://www.w3.org/2000/svg">
<path d="M650 1300C290.71 1300 0 1008.86 0 650C0 290.71 291.141 0 650 0C1009.29 0 1300 291.141 1300 650C1300.43 1009.29 1009.29 1300 650 1300Z" fill="#F4DA92"/>
<mask id="mask0_32_1412" style="mask-type:alpha" maskUnits="userSpaceOnUse" x="0" y="0" width="1300" height="1300">
<path d="M650 1300C290.71 1300 0 1008.86 0 650C0 290.71 291.141 0 650 0C1009.29 0 1300 291.141 1300 650C1300.43 1009.29 1009.29 1300 650 1300Z" fill="#F7C0B5"/>
</mask>
<g mask="url(#mask0_32_1412)">
<path d="M1014 1197.33C1010.97 1199.5 1007.5 1201.66 1004.47 1203.83C1001 1206 997.966 1208.16 994.499 1209.9C991.466 1211.63 988.866 1213.36 985.833 1215.1C985.399 1215.53 984.966 1215.53 984.533 1215.96C974.566 1222.03 964.166 1227.66 953.766 1232.86C950.733 1234.6 947.266 1236.33 944.233 1237.63C944.233 1237.63 943.8 1238.06 943.366 1238.06C939.9 1239.8 936.433 1241.53 932.966 1243.26C926.033 1246.73 918.666 1249.76 911.733 1252.8C908.266 1254.53 904.366 1255.83 900.9 1257.13C897.433 1258.43 893.533 1260.16 890.066 1261.46C886.6 1262.76 882.7 1264.5 879.233 1265.8C879.233 1265.8 879.233 1265.8 878.8 1265.8C875.333 1267.1 871.433 1268.4 867.966 1269.7C860.166 1272.3 851.933 1274.9 844.133 1277.5C841.533 1278.36 838.5 1279.23 835.9 1280.1C827.666 1282.7 819.433 1284.86 811.2 1286.6C808.166 1287.46 805.133 1287.9 801.666 1288.76C793.866 1290.5 785.633 1292.23 777.833 1293.96C776.1 1294.4 774.8 1294.4 773.066 1294.83C770.466 1295.26 767.433 1295.7 764.833 1296.13C760.933 1296.56 757.466 1297.43 753.566 1297.86C751.833 1298.3 750.1 1298.3 748.366 1298.73C746.2 1299.16 743.6 1299.6 741 1299.6C734.066 1300.46 726.7 1301.33 719.766 1302.2C717.6 1302.63 715 1302.63 712.833 1303.06H712.4C709.366 1303.5 706.333 1303.5 703.3 1303.93C700.266 1304.36 697.233 1304.36 694.2 1304.36C692.466 1304.36 690.3 1304.8 688.566 1304.8C685.1 1304.8 682.066 1305.23 679.033 1305.23C674.7 1305.23 670.8 1305.66 666.466 1305.66C662.133 1305.66 658.233 1305.66 653.9 1305.66C650.866 1305.66 647.833 1305.66 644.8 1305.66C462.367 1303.06 297.7 1225.5 180.7 1102.43C180.7 1102.43 180.7 1102 180.267 1102C193.7 1075.56 243.533 1027.9 295.533 988.465C361.4 938.631 454.567 907.865 454.567 907.865C454.567 907.865 515.667 897.898 742.3 945.131C915.2 981.531 988.866 1129.3 1014 1197.33Z" fill="#F7D3B5"/>
<path d="M790.4 1065.16C781.3 1109.8 722.367 1136.23 623.134 1096.36C501.367 1046.96 454.567 907.865 454.567 907.865C448.067 808.198 432.9 722.832 432.9 722.832C573.734 710.698 740.133 875.365 740.133 875.365L759.2 956.831C760.934 963.765 764.4 969.831 769.6 974.165C778.7 989.765 796.467 1036.56 790.4 1065.16Z" fill="#F7D3B5"/>
<path d="M769.6 974.598C686.833 970.264 625.733 958.131 560.3 840.698C615.766 889.664 681.2 908.298 750.1 916.964L759.2 956.831C760.933 964.198 764.4 970.264 769.6 974.598Z" fill="#EFBDA5"/>
<path d="M940.766 452.431C948.566 488.831 952.466 518.298 931.233 615.365C909.999 712.431 950.733 809.498 848.466 898.331C779.566 958.131 659.1 969.398 562.9 903.965C530.4 881.865 500.5 851.098 476.233 810.798C457.166 779.165 435.066 749.265 410.366 721.965C376.133 684.698 334.967 609.731 355.333 477.131C388.266 261.332 601.9 236.632 728 260.465C854.099 284.298 919.533 356.231 940.766 452.431Z" fill="#F7D3B5"/>
<path d="M526.066 621.865C526.066 621.865 512.633 556.865 449.366 564.665C394.766 571.598 375.7 702.465 499.633 738.865" fill="#F7D3B5"/>
<path d="M495.734 679.498C495.734 679.498 480.134 669.531 481.867 652.198C484.467 631.831 481.867 619.265 472.334 615.365C448.5 605.398 443.734 633.131 444.6 636.598" stroke="#423232" stroke-width="13.4786" stroke-miterlimit="10" stroke-linecap="round" stroke-linejoin="round"/>
<path d="M826.366 721.531C826.366 721.531 842.832 722.398 858.432 703.765C867.099 693.365 874.466 680.365 869.699 676.465C864.932 672.131 786.499 684.265 781.299 694.665C776.099 705.065 806.432 721.531 826.366 721.531Z" fill="#EFBDA5"/>
<path d="M839.367 575.932C839.367 575.932 840.233 617.098 866.666 663.031C878.366 683.398 860.6 716.765 822.033 722.398" stroke="#423232" stroke-width="13.4786" stroke-miterlimit="10" stroke-linecap="round" stroke-linejoin="round"/>
<path opacity="0.42" d="M604.5 743.631C629.15 743.631 649.133 727.14 649.133 706.798C649.133 686.455 629.15 669.965 604.5 669.965C579.85 669.965 559.867 686.455 559.867 706.798C559.867 727.14 579.85 743.631 604.5 743.631Z" fill="#ED938A"/>
<path opacity="0.42" d="M924.299 670.831C922.999 695.098 923.433 718.931 921.699 742.765C902.633 738.431 888.766 724.131 888.766 707.231C888.766 689.031 903.933 674.298 924.299 670.831Z" fill="#ED938A"/>
<path d="M905.623 1028.73C905.623 1028.73 838.457 965.9 772.157 950.733C772.157 950.733 828.057 1041.73 663.823 1024.83C536.423 1011.83 453.657 905.233 453.657 905.233C453.657 905.233 370.024 928.633 302.424 980.2C302.424 980.2 311.524 1113.23 463.624 1179.1C615.723 1244.97 827.623 1212.47 877.89 1170C928.157 1127.53 918.19 1042.6 905.623 1028.73Z" fill="#444444"/>
<path d="M265.157 1009.23C265.157 1009.23 137.757 1055.6 91.8238 1187.77C45.8905 1319.93 90.5238 1516.67 90.5238 1516.67H1104.52C1104.52 1516.67 1112.76 1288.3 1042.56 1161.33C1026.09 1131.87 980.59 1084.2 948.09 1069.03C948.09 1069.03 960.224 1180.83 768.257 1190.8C576.29 1200.77 345.324 1139.67 339.69 1104.13C334.49 1067.73 265.157 1009.23 265.157 1009.23Z" fill="white"/>
<path d="M994.023 1524.47C721.89 1650.13 273.823 1536.6 273.823 1536.6C273.823 1536.6 264.723 1426.1 297.657 1227.2C298.957 1218.1 300.257 1209 301.123 1200.77C310.657 1110.63 288.557 1048.67 265.157 1009.67C265.157 999.7 275.557 992.767 287.257 982.8C292.023 978.9 298.523 978.467 301.99 981.067C308.057 989.733 313.69 998.4 318.457 1007.5C366.99 1097.2 462.323 1144.87 563.723 1154.83C701.957 1168.7 759.59 1166.53 828.49 1151.37C894.79 1136.63 924.69 1097.63 906.057 1032.63C905.623 1031.77 905.623 1030.47 905.19 1029.17C916.89 1028.3 944.19 1050.83 953.29 1084.2C962.823 1125.37 970.19 1171.73 975.823 1218.1C994.457 1369.33 994.023 1524.47 994.023 1524.47Z" fill="#444444"/>
<path d="M366.124 940.333C366.124 940.333 450.19 1109.77 595.79 1202.5C609.223 1211.17 626.99 1207.7 636.523 1195.13L716.257 1091.13L810.723 1175.63C821.557 1185.6 839.323 1179.97 842.79 1165.67C851.023 1129.27 857.523 1061.67 826.757 971.533" stroke="white" stroke-width="13.4786" stroke-miterlimit="10" stroke-linecap="round" stroke-linejoin="round"/>
<path d="M737.057 1464.67C748.324 1335.1 716.257 1091.57 716.257 1091.57" stroke="white" stroke-width="13.4786" stroke-miterlimit="10" stroke-linecap="round" stroke-linejoin="round"/>
<path d="M783.857 1234.13C792.472 1234.13 799.457 1227.15 799.457 1218.53C799.457 1209.92 792.472 1202.93 783.857 1202.93C775.241 1202.93 768.257 1209.92 768.257 1218.53C768.257 1227.15 775.241 1234.13 783.857 1234.13Z" fill="white"/>
<path d="M790.79 1312.13C799.406 1312.13 806.39 1305.15 806.39 1296.53C806.39 1287.92 799.406 1280.93 790.79 1280.93C782.175 1280.93 775.19 1287.92 775.19 1296.53C775.19 1305.15 782.175 1312.13 790.79 1312.13Z" fill="white"/>
<path d="M698.924 1017.03C698.924 1017.03 632.624 976.733 605.324 983.666C577.591 990.6 587.124 1090.27 604.891 1106.3C622.658 1122.33 698.491 1071.2 703.258 1066.87C708.024 1062.53 705.858 1023.97 698.924 1017.03Z" fill="white"/>
<path d="M724.057 1017.47C724.057 1017.47 750.057 976.733 776.491 971.533C802.491 966.333 814.624 1076.4 802.924 1086.8C791.224 1096.77 736.624 1075.1 730.557 1068.17C724.057 1061.67 720.591 1030.9 724.057 1017.47Z" fill="white"/>
<path d="M751.791 1052.13C753.091 1028.3 736.191 1007.93 713.658 1005.77C691.124 1003.6 671.624 1020.93 669.458 1044.77C667.724 1069.03 684.624 1090.27 707.591 1092.43C730.991 1094.17 750.491 1076.4 751.791 1052.13Z" fill="#444444"/>
<path d="M669.457 1044.77C669.89 1061.67 678.99 1076.83 692.857 1084.2C706.29 1091.57 723.624 1089.4 734.89 1079C746.157 1069.03 750.49 1052.13 746.59 1037.4C742.69 1022.67 730.557 1009.23 713.657 1005.77C717.99 1005.77 721.89 1006.63 726.224 1007.93C730.124 1009.23 734.024 1011.4 737.49 1014C744.424 1019.2 750.057 1027 752.657 1035.23C755.69 1043.9 756.124 1053 753.957 1062.1C752.657 1066.43 750.924 1070.77 748.757 1074.67C746.59 1078.57 743.557 1082.03 740.09 1085.5C733.157 1091.57 724.49 1095.9 715.39 1096.33C706.29 1097.2 696.757 1095.03 689.39 1089.83C681.59 1085.07 675.957 1077.7 672.49 1069.9C669.024 1062.1 668.157 1053 669.457 1044.77Z" fill="white"/>
<path d="M699.711 590.249C699.711 590.682 699.711 591.116 699.711 591.116L699.278 603.249C698.845 613.649 690.178 621.449 679.778 621.016C669.378 620.582 661.578 611.482 662.445 601.516L662.878 589.382C662.878 587.216 663.745 584.616 664.611 582.882L699.278 584.616C699.278 586.349 699.711 588.082 699.711 590.249Z" fill="#423232"/>
<path d="M880.84 599.782L880.406 611.049C879.973 620.582 871.74 627.949 862.206 627.516C852.673 627.082 845.307 618.849 845.74 609.315L846.173 598.049C846.173 595.882 846.606 593.716 847.473 591.982L879.973 593.282C880.84 595.449 880.84 597.616 880.84 599.782Z" fill="#423232"/>
<path d="M743.041 530.882C752.574 532.182 759.941 522.216 756.474 512.682C754.741 507.482 751.708 502.716 746.941 499.682C732.208 490.582 677.174 489.716 648.141 510.516C622.574 529.582 699.708 524.816 743.041 530.882Z" fill="#423232"/>
<path d="M863.074 535.649C855.274 535.649 850.507 525.682 854.407 517.449C856.574 513.115 859.607 509.215 863.941 507.049C877.374 500.549 913.341 504.449 929.374 526.549C943.674 546.049 899.041 535.215 863.074 535.649Z" fill="#423232"/>
<path d="M727.874 585.482L698.841 584.182L664.175 582.882L656.375 582.448" stroke="#423232" stroke-width="13.4786" stroke-miterlimit="10" stroke-linecap="round" stroke-linejoin="round"/>
<path d="M899.042 594.149L879.976 593.282L847.476 591.982H846.176" stroke="#423232" stroke-width="13.4786" stroke-miterlimit="10" stroke-linecap="round" stroke-linejoin="round"/>
<path d="M816.925 774.866C805.693 779.808 800.302 769.923 782.779 778.46C770.199 784.301 763.46 786.098 748.184 777.112C738.3 770.822 726.169 779.808 714.488 762.735" stroke="#423232" stroke-width="13.4786" stroke-miterlimit="10" stroke-linecap="round" stroke-linejoin="round"/>
<path d="M947.249 445.323C945.949 438.823 944.215 431.889 942.049 425.389C939.882 418.889 934.682 413.256 927.749 411.956C905.215 408.056 883.549 369.056 852.349 364.723C753.115 351.289 686.815 359.523 593.649 395.923C497.449 433.189 600.582 567.956 531.682 612.156C528.215 600.023 511.315 550.623 455.849 557.556C403.416 564.056 383.482 685.389 491.815 726.989C444.582 804.123 448.049 773.356 413.382 731.756C378.715 690.156 309.382 582.256 356.182 424.523C402.982 266.79 614.882 184.456 812.049 264.623C845.849 278.49 866.215 312.723 895.682 318.356C1169.98 370.789 953.749 476.523 947.249 445.323Z" fill="#423232"/>
<path d="M680.749 363.423C680.749 363.423 643.916 352.59 621.816 410.223C599.716 467.856 522.583 547.156 458.449 454.856C394.316 362.99 490.516 289.323 590.616 319.223C690.716 349.123 679.449 326.59 680.749 363.423Z" fill="#423232"/>
<path d="M744.449 321.39C744.449 321.39 841.949 383.357 906.082 359.09C946.382 343.923 991.882 288.023 960.249 246.423C922.549 196.59 805.982 234.29 740.982 213.49C643.482 182.29 492.249 161.49 421.182 278.49C403.416 307.957 387.382 337.857 362.249 361.257C336.249 385.523 310.249 424.957 308.082 486.49C304.182 609.123 400.382 715.723 400.382 715.723C400.382 715.723 343.182 505.99 451.082 474.79C558.982 443.59 588.882 335.69 660.382 335.69C731.882 335.69 698.516 255.09 744.449 321.39Z" fill="#423232"/>
<path d="M839.349 376.423C839.349 376.423 917.783 474.357 976.716 468.723C1035.65 463.09 1101.95 336.557 939.882 293.224C777.816 249.89 839.349 376.423 839.349 376.423Z" fill="#423232"/>
<path d="M680.75 363.423C680.75 363.423 732.317 490.823 869.25 505.99C1006.62 521.59 1062.08 270.257 852.35 246.423C642.616 222.59 680.75 363.423 680.75 363.423Z" fill="#423232"/>
<path d="M571.116 303.623C571.116 303.623 603.182 449.223 670.782 455.723C738.382 462.223 720.182 274.157 631.782 261.157C543.382 248.157 571.116 303.623 571.116 303.623Z" fill="#423232"/>
<path d="M877.818 658.314C866.118 644.014 850.952 634.047 832.752 633.614C813.685 633.18 783.785 637.514 753.885 661.347C714.885 692.547 636.885 687.78 606.118 684.747C597.452 683.88 589.218 688.214 585.318 696.014C576.652 713.347 564.952 749.314 570.585 807.38C577.952 886.68 642.518 958.614 733.518 952.547C853.118 945.18 922.885 848.98 927.218 720.28C926.351 684.747 905.118 692.114 877.818 658.314Z" fill="white"/>
<path d="M717.918 684.747C717.918 684.747 900.352 767.08 915.952 707.281" stroke="#EDF3F4" stroke-width="13.4786" stroke-miterlimit="10" stroke-linecap="round" stroke-linejoin="round"/>
<path d="M644.252 743.681C644.252 743.681 828.419 848.981 911.186 791.781" stroke="#EDF3F4" stroke-width="13.4786" stroke-miterlimit="10" stroke-linecap="round" stroke-linejoin="round"/>
<path d="M637.752 818.214C637.752 818.214 732.652 903.581 869.152 872.814" stroke="#EDF3F4" stroke-width="13.4786" stroke-miterlimit="10" stroke-linecap="round" stroke-linejoin="round"/>
<path d="M662.885 692.114C662.885 692.114 644.685 717.247 637.319 783.547C628.652 863.281 666.352 929.581 666.352 929.581" stroke="#EDF3F4" stroke-width="13.4786" stroke-miterlimit="10" stroke-linecap="round" stroke-linejoin="round"/>
<path d="M602.651 695.58C602.651 695.58 552.817 660.914 517.717 601.114" stroke="white" stroke-width="13.4786" stroke-miterlimit="10" stroke-linecap="round" stroke-linejoin="round"/>
<path d="M492.152 735.881C502.119 768.381 526.818 821.248 589.218 868.914" stroke="white" stroke-width="13.4786" stroke-miterlimit="10" stroke-linecap="round" stroke-linejoin="round"/>
</g>
</svg>
