<svg width="1300" height="1300" viewBox="0 0 1300 1300" fill="none" xmlns="http://www.w3.org/2000/svg">
<path d="M650 1300C290.71 1300 0 1008.86 0 650C0 290.71 291.141 0 650 0C1009.29 0 1300 291.141 1300 650C1300.43 1009.29 1009.29 1300 650 1300Z" fill="#B5E2DC"/>
<mask id="mask0_32_1452" style="mask-type:alpha" maskUnits="userSpaceOnUse" x="0" y="0" width="1301" height="1300">
<path d="M650 1300C290.71 1300 0 1008.86 0 650C0 290.71 291.141 0 650 0C1009.29 0 1300 291.141 1300 650C1300.43 1009.29 1009.29 1300 650 1300Z" fill="#F7C0B5"/>
</mask>
<g mask="url(#mask0_32_1452)">
<path d="M1014.87 1197.33C1011.83 1199.5 1008.37 1201.66 1005.33 1203.83C1001.87 1206 998.833 1208.16 995.366 1209.9C992.333 1211.63 989.733 1213.36 986.699 1215.1C986.266 1215.53 985.833 1215.53 985.399 1215.96C975.433 1222.03 965.033 1227.66 954.633 1232.86C951.599 1234.6 948.133 1236.33 945.099 1237.63C945.099 1237.63 944.666 1238.06 944.233 1238.06C940.766 1239.8 937.299 1241.53 933.833 1243.26C926.899 1246.73 919.533 1249.76 912.599 1252.8C909.133 1254.53 905.233 1255.83 901.766 1257.13C898.299 1258.43 894.399 1260.16 890.933 1261.46C887.466 1262.76 883.566 1264.5 880.099 1265.8C880.099 1265.8 880.099 1265.8 879.666 1265.8C876.199 1267.1 872.299 1268.4 868.833 1269.7C861.033 1272.3 852.799 1274.9 844.999 1277.5C842.399 1278.36 839.366 1279.23 836.766 1280.1C828.533 1282.7 820.299 1284.86 812.066 1286.6C809.033 1287.46 805.999 1287.9 802.533 1288.76C794.733 1290.5 786.499 1292.23 778.699 1293.96C776.966 1294.4 775.666 1294.4 773.933 1294.83C771.333 1295.26 768.299 1295.7 765.699 1296.13C761.799 1296.56 758.333 1297.43 754.433 1297.86C752.699 1298.3 750.966 1298.3 749.233 1298.73C747.066 1299.16 744.466 1299.6 741.866 1299.6C734.933 1300.46 727.566 1301.33 720.633 1302.2C718.466 1302.63 715.866 1302.63 713.699 1303.06H713.266C710.233 1303.5 707.199 1303.5 704.166 1303.93C701.133 1304.36 698.099 1304.36 695.066 1304.36C693.333 1304.36 691.166 1304.8 689.433 1304.8C685.966 1304.8 682.933 1305.23 679.899 1305.23C675.566 1305.23 671.666 1305.66 667.333 1305.66C662.999 1305.66 659.099 1305.66 654.766 1305.66C651.733 1305.66 648.699 1305.66 645.666 1305.66C463.233 1303.06 298.566 1225.5 181.566 1102.43C181.566 1102.43 181.566 1102 181.133 1102C194.566 1075.56 244.399 1027.9 296.399 988.465C362.266 938.631 455.433 907.865 455.433 907.865C455.433 907.865 516.533 897.898 743.166 945.131C916.066 981.531 989.733 1129.3 1014.87 1197.33Z" fill="#AD827B"/>
<path d="M791.266 1065.16C782.166 1109.8 723.233 1136.23 623.999 1096.36C502.233 1046.96 455.433 907.865 455.433 907.865C448.933 808.198 433.766 722.831 433.766 722.831C574.599 710.698 740.999 875.365 740.999 875.365L760.066 956.831C761.799 963.764 765.266 969.831 770.466 974.165C779.566 989.764 797.333 1036.56 791.266 1065.16Z" fill="#AD827B"/>
<path d="M770.466 974.598C687.699 970.265 626.599 958.131 561.166 840.698C616.633 889.665 682.066 908.298 750.966 916.965L760.066 956.831C761.799 964.198 765.266 970.265 770.466 974.598Z" fill="#8E5650"/>
<path d="M941.632 452.431C949.432 488.831 953.332 518.298 932.099 615.365C910.866 712.431 951.599 809.498 849.332 898.331C780.432 958.131 659.966 969.398 563.766 903.965C531.266 881.865 501.366 851.098 477.099 810.798C458.032 779.165 435.932 749.265 411.232 721.965C376.999 684.698 335.832 609.731 356.199 477.131C389.132 261.331 602.766 236.631 728.866 260.465C854.966 284.298 920.399 356.231 941.632 452.431Z" fill="#AD827B"/>
<path d="M526.933 621.865C526.933 621.865 513.5 556.865 450.233 564.665C395.633 571.598 376.566 702.465 500.5 738.865" fill="#AD827B"/>
<path d="M496.6 679.498C496.6 679.498 480.999 669.531 482.733 652.198C485.333 631.831 482.733 619.265 473.2 615.365C449.366 605.398 444.6 633.131 445.466 636.598" stroke="#423232" stroke-width="13.4786" stroke-miterlimit="10" stroke-linecap="round" stroke-linejoin="round"/>
<path d="M827.233 721.531C827.233 721.531 843.7 722.398 859.3 703.765C867.967 693.365 875.333 680.365 870.567 676.465C865.8 672.131 787.367 684.265 782.167 694.665C776.967 705.065 807.3 721.531 827.233 721.531Z" fill="#8E605C"/>
<path d="M840.233 575.931C840.233 575.931 841.099 617.098 867.533 663.031C879.233 683.398 861.466 716.765 822.899 722.398" stroke="#423232" stroke-width="13.4786" stroke-miterlimit="10" stroke-linecap="round" stroke-linejoin="round"/>
<path d="M496.385 947.754C496.385 947.754 487.718 894.021 472.985 897.054C404.518 912.654 204.752 970.721 134.985 1121.52C69.1183 1264.95 63.0516 1466.02 63.0516 1466.02H1158.95C1158.95 1466.02 1139.02 1160.52 1027.22 1066.92C960.918 1011.02 901.118 976.788 852.152 955.988C787.152 928.254 721.718 986.321 703.085 985.021C669.718 983.288 496.385 947.754 496.385 947.754Z" fill="#544D4D"/>
<path d="M277.551 1466.02L258.051 1305.25" stroke="white" stroke-width="13.4786" stroke-miterlimit="10" stroke-linecap="round" stroke-linejoin="round"/>
<path d="M1034.15 1250.65C1034.15 1250.65 1021.15 1282.29 1025.05 1313.92C1028.95 1345.55 1040.22 1391.92 1024.18 1466.02" stroke="white" stroke-width="13.4786" stroke-miterlimit="10" stroke-linecap="round" stroke-linejoin="round"/>
<path d="M446.552 853.287C446.552 853.287 415.352 864.554 409.719 870.621C404.085 876.687 401.485 880.587 401.485 880.587C401.485 880.587 385.885 897.921 377.219 939.954C373.319 957.721 382.419 986.754 375.485 1009.72C355.552 1073.42 450.019 1171.35 606.019 1228.99C724.319 1272.75 854.752 1232.89 872.952 1150.55C890.285 1071.25 879.885 1035.29 871.652 1009.72C855.185 960.321 849.985 946.454 827.885 927.387C814.019 915.254 804.485 940.387 752.485 954.687C736.452 959.021 716.952 962.487 691.819 963.354C542.319 968.987 479.052 884.054 456.519 859.787C450.885 855.021 448.285 852.421 446.552 853.287Z" fill="white"/>
<path d="M751.185 954.254C735.151 958.587 715.651 962.054 690.518 962.921C541.018 968.554 477.751 883.621 455.218 859.354" stroke="#CCCCCC" stroke-width="13.4786" stroke-miterlimit="10" stroke-linecap="round" stroke-linejoin="round"/>
<path d="M830.485 911.788C869.919 944.721 938.385 1030.95 921.919 1223.79C913.685 1319.12 960.052 1358.55 949.652 1373.72C947.919 1376.32 945.752 1377.62 944.018 1378.05C936.652 1379.79 929.719 1383.25 926.252 1390.19C924.952 1393.22 922.785 1395.39 919.752 1397.12C917.152 1398.85 914.118 1398.85 911.518 1398.42C902.418 1396.25 892.452 1401.45 886.819 1409.25C884.652 1412.29 882.052 1414.45 878.152 1415.32C875.552 1416.19 872.952 1415.75 871.218 1415.32C863.852 1413.15 855.618 1415.32 849.118 1420.52C847.385 1421.82 845.652 1422.69 843.485 1422.69C839.585 1422.69 836.552 1420.95 833.952 1418.35C827.885 1412.72 819.218 1410.55 810.552 1413.59C809.685 1414.02 809.252 1414.02 808.385 1414.02C802.318 1414.89 797.552 1410.12 794.085 1401.89C790.619 1394.09 782.385 1390.62 773.718 1391.49C771.985 1391.49 770.252 1391.49 768.085 1391.05C751.185 1387.15 729.518 1363.75 729.085 1335.15C728.652 1306.99 735.152 1258.02 745.985 1235.05C779.352 1164.42 791.485 1113.72 793.218 1075.59C796.685 1005.82 752.485 943.421 756.818 942.121C801.018 933.021 830.485 911.788 830.485 911.788Z" fill="white"/>
<path d="M745.552 1235.05C778.918 1164.42 791.051 1113.72 792.785 1075.59C795.385 1021.85 769.385 972.021 759.852 951.654" stroke="#CCCCCC" stroke-width="13.4786" stroke-miterlimit="10" stroke-linecap="round" stroke-linejoin="round"/>
<path d="M728.652 1335.15C728.218 1306.99 734.718 1258.02 745.552 1235.05C778.918 1164.42 791.052 1113.72 792.785 1075.59" stroke="#CCCCCC" stroke-width="13.4786" stroke-miterlimit="10" stroke-linecap="round" stroke-linejoin="round"/>
<path d="M767.219 1183.92C767.219 1183.92 635.485 1196.92 548.819 1131.49" stroke="#CCCCCC" stroke-width="13.4786" stroke-miterlimit="10" stroke-linecap="round" stroke-linejoin="round"/>
<path d="M802.753 955.554C814.886 973.321 828.753 999.321 832.219 1031.39" stroke="#CCCCCC" stroke-width="13.4786" stroke-miterlimit="10" stroke-linecap="round" stroke-linejoin="round"/>
<path d="M857.786 1415.32C857.786 1415.32 835.686 1368.52 857.786 1266.69C881.186 1158.35 870.353 1105.05 870.353 1105.05" stroke="#CCCCCC" stroke-width="13.4786" stroke-miterlimit="10" stroke-linecap="round" stroke-linejoin="round"/>
<path d="M376.352 961.621C376.352 961.621 405.385 1021.42 440.485 1049.15" stroke="#CCCCCC" stroke-width="13.4786" stroke-miterlimit="10" stroke-linecap="round" stroke-linejoin="round"/>
<path d="M789.319 1105.05C789.319 1105.05 706.986 1110.69 648.919 1088.15" stroke="#CCCCCC" stroke-width="13.4786" stroke-miterlimit="10" stroke-linecap="round" stroke-linejoin="round"/>
<path d="M743.043 526.549C752.576 527.849 759.943 517.882 756.476 508.349C754.743 503.149 751.71 498.382 746.943 495.349C732.209 486.249 677.176 485.382 648.143 506.182C622.576 525.249 699.709 520.482 743.043 526.549Z" fill="#423232"/>
<path d="M863.074 531.315C855.274 531.315 850.508 521.349 854.408 513.115C856.574 508.782 859.608 504.882 863.941 502.715C877.374 496.215 913.341 500.115 929.374 522.215C943.674 541.715 899.041 530.882 863.074 531.315Z" fill="#423232"/>
<path d="M727.876 581.148C694.076 595.449 656.376 577.682 656.376 577.682" stroke="#423232" stroke-width="13.4786" stroke-miterlimit="10" stroke-linecap="round" stroke-linejoin="round"/>
<path d="M899.042 589.816C899.042 589.816 875.642 604.116 846.176 587.216" stroke="#423232" stroke-width="13.4786" stroke-miterlimit="10" stroke-linecap="round" stroke-linejoin="round"/>
<path d="M804.158 772.845C804.607 780.033 799.215 792.613 789.331 801.599C738.562 770.598 715.648 786.773 715.648 786.773C697.677 759.366 701.72 722.075 745.301 750.38C775.852 769.7 794.273 772.845 804.158 772.845Z" fill="#423232"/>
<path d="M789.331 801.599C778.549 811.034 762.374 816.875 740.359 807.889C730.026 803.846 721.938 795.758 715.648 786.773C715.648 786.773 738.562 770.598 789.331 801.599Z" fill="#FE9DAB"/>
<path d="M812.694 771.048C812.694 771.048 793.824 781.381 745.301 750.381C687.343 713.09 699.025 791.266 739.91 807.889C782.592 825.411 804.607 787.222 804.158 772.845" stroke="#423232" stroke-width="13.4786" stroke-miterlimit="10" stroke-linecap="round" stroke-linejoin="round"/>
<path d="M715.648 786.773C715.648 786.773 738.562 770.598 789.331 801.599" stroke="#423232" stroke-width="13.4786" stroke-miterlimit="10" stroke-linecap="round" stroke-linejoin="round"/>
<path d="M1007.78 624.095C987.418 605.462 981.784 578.162 980.051 559.962C993.051 568.629 1009.95 542.195 1009.08 510.995C1007.78 464.629 995.651 430.395 981.351 406.562C991.318 393.995 998.685 379.262 1002.58 362.795C1020.35 290.862 961.851 235.829 876.485 215.029C824.051 202.029 727.851 208.529 614.751 206.795C595.251 206.362 574.885 207.228 554.951 209.395C530.685 211.995 506.851 217.195 484.751 226.295C448.785 239.729 415.851 260.962 390.718 291.728C346.518 346.328 333.951 408.728 331.785 457.262C329.618 514.895 315.751 571.662 288.451 622.795C258.985 677.829 240.785 736.328 269.818 786.595C270.685 787.895 271.551 789.195 272.418 790.928C258.551 859.395 335.685 853.329 350.851 783.995C347.818 796.995 345.651 808.262 344.351 816.062C333.951 884.095 383.351 892.762 408.051 845.529C410.651 840.762 417.151 821.262 424.085 796.562C424.085 800.895 424.518 805.229 424.951 809.129C425.818 904.029 493.418 912.262 489.518 848.129C487.785 819.529 492.551 779.662 499.918 736.329C376.851 699.495 395.918 569.495 450.951 562.562C514.218 554.328 527.651 619.762 527.651 619.762C532.418 640.128 539.351 664.395 549.751 676.095C568.385 696.462 600.451 682.162 579.651 618.029C575.318 604.595 571.418 589.429 568.818 573.395C585.285 577.728 599.585 568.628 592.651 550.429C586.151 533.962 582.685 518.795 581.818 504.495C580.518 482.395 586.151 462.462 595.685 445.995C605.651 485.429 647.251 473.295 649.851 444.695C650.718 435.162 653.751 423.895 658.085 411.329C668.485 424.762 682.785 437.328 700.551 446.428C733.485 462.895 756.885 455.095 762.085 438.195C783.318 445.562 802.385 451.195 817.118 454.662C861.318 465.495 905.085 459.862 939.318 441.662C941.051 445.562 941.918 449.029 942.351 450.329C942.784 452.495 943.218 454.662 943.651 456.829C947.551 475.462 949.718 493.662 947.985 520.962C947.985 522.262 947.984 523.128 947.551 524.429C947.551 525.295 947.551 526.162 947.118 527.029C947.118 529.195 946.684 530.929 946.684 533.095C946.684 534.395 946.251 535.262 946.251 536.562C946.251 538.295 945.818 540.462 945.385 542.629C944.951 544.362 944.951 546.095 944.518 547.829C944.518 549.129 944.085 550.862 944.085 552.162C943.651 554.762 943.218 557.362 942.784 560.395C942.784 560.828 942.784 561.695 942.351 562.129C941.918 565.595 941.051 569.062 940.618 572.962C938.451 585.095 935.851 598.095 932.818 613.262C914.618 697.328 942.785 782.262 883.418 861.129C880.818 884.529 901.185 913.995 926.318 883.229C945.818 859.395 936.718 779.662 935.418 763.629C937.151 780.529 964.018 834.262 989.151 826.462C1003.02 822.129 1009.08 814.762 1006.92 789.195C1004.32 753.229 976.151 717.695 972.251 665.262C998.251 687.362 1035.08 648.795 1007.78 624.095Z" fill="#423232"/>
<path d="M477.158 636.126C477.158 636.126 442.492 630.926 445.092 679.459C446.392 704.159 446.392 717.593 445.958 724.526C445.525 729.293 448.558 733.626 452.892 735.359C458.092 737.526 463.725 735.359 466.325 730.159C470.225 723.226 474.558 713.693 474.558 705.893C474.558 692.893 488.425 681.193 488.425 681.193C488.425 681.193 475.858 670.359 477.158 636.126Z" fill="white"/>
<path d="M582.025 1471.59C578.559 1467.69 442.492 1234.99 462.859 1147.46C476.725 1087.23 458.525 1017.89 442.492 956.793C435.992 931.659 429.925 908.259 426.459 887.459C420.392 851.493 424.725 817.259 439.459 785.626C455.492 750.093 452.892 719.326 452.892 718.893L461.559 718.026C461.559 719.326 464.159 751.826 447.259 789.093C433.392 818.993 429.492 851.926 435.125 886.159C438.592 906.526 444.659 929.926 451.159 955.059C467.625 1017.03 485.825 1087.66 471.525 1150.06C452.459 1233.26 588.092 1465.96 588.959 1466.83L582.025 1471.59Z" fill="white"/>
<path d="M446.392 704.592C446.826 714.126 446.392 720.626 446.392 724.526C445.959 729.292 448.992 733.626 453.326 735.359C458.526 737.526 464.159 735.359 466.759 730.159C470.659 723.226 474.992 713.692 474.992 705.892C474.992 705.459 474.992 704.592 474.992 704.159C465.892 707.626 455.492 710.226 446.392 704.592Z" fill="#E5E5E5"/>
<path d="M854.158 992.759C851.125 1012.69 850.692 1044.33 849.825 1081.16C848.525 1152.23 806.492 1429.13 786.125 1472.89L778.325 1469.43C797.825 1426.96 839.858 1151.36 841.158 1081.16C842.025 1044.33 842.458 1012.26 845.492 991.459C851.992 947.692 847.225 914.759 844.625 900.892C845.925 899.592 847.225 898.726 848.525 897.426C849.825 896.559 850.692 895.259 851.992 894.392C854.592 905.659 861.958 941.626 854.158 992.759Z" fill="white"/>
</g>
</svg>
