<svg width="1300" height="1300" viewBox="0 0 1300 1300" fill="none" xmlns="http://www.w3.org/2000/svg">
<path d="M650 1300C290.71 1300 0 1008.86 0 650C0 290.71 291.141 0 650 0C1009.29 0 1300 291.141 1300 650C1300.43 1009.29 1009.29 1300 650 1300Z" fill="#B5E2DC"/>
<mask id="mask0_32_1472" style="mask-type:alpha" maskUnits="userSpaceOnUse" x="0" y="0" width="1301" height="1300">
<path d="M650 1300C290.71 1300 0 1008.86 0 650C0 290.71 291.141 0 650 0C1009.29 0 1300 291.141 1300 650C1300.43 1009.29 1009.29 1300 650 1300Z" fill="#F7C0B5"/>
</mask>
<g mask="url(#mask0_32_1472)">
<path d="M1014 1197.33C1010.97 1199.5 1007.5 1201.66 1004.47 1203.83C1001 1206 997.967 1208.16 994.5 1209.9C991.467 1211.63 988.867 1213.36 985.833 1215.1C985.4 1215.53 984.967 1215.53 984.534 1215.96C974.567 1222.03 964.167 1227.66 953.767 1232.86C950.734 1234.6 947.267 1236.33 944.234 1237.63C944.234 1237.63 943.8 1238.06 943.367 1238.06C939.9 1239.8 936.434 1241.53 932.967 1243.26C926.034 1246.73 918.667 1249.76 911.734 1252.8C908.267 1254.53 904.367 1255.83 900.9 1257.13C897.434 1258.43 893.534 1260.16 890.067 1261.46C886.6 1262.76 882.7 1264.5 879.234 1265.8C879.234 1265.8 879.234 1265.8 878.8 1265.8C875.334 1267.1 871.434 1268.4 867.967 1269.7C860.167 1272.3 851.934 1274.9 844.134 1277.5C841.534 1278.36 838.5 1279.23 835.9 1280.1C827.667 1282.7 819.434 1284.86 811.2 1286.6C808.167 1287.46 805.134 1287.9 801.667 1288.76C793.867 1290.5 785.634 1292.23 777.834 1293.96C776.1 1294.4 774.8 1294.4 773.067 1294.83C770.467 1295.26 767.434 1295.7 764.834 1296.13C760.934 1296.56 757.467 1297.43 753.567 1297.86C751.834 1298.3 750.1 1298.3 748.367 1298.73C746.2 1299.16 743.6 1299.6 741 1299.6C734.067 1300.46 726.7 1301.33 719.767 1302.2C717.6 1302.63 715 1302.63 712.834 1303.06H712.4C709.367 1303.5 706.334 1303.5 703.3 1303.93C700.267 1304.36 697.234 1304.36 694.2 1304.36C692.467 1304.36 690.3 1304.8 688.567 1304.8C685.1 1304.8 682.067 1305.23 679.034 1305.23C674.7 1305.23 670.8 1305.66 666.467 1305.66C662.134 1305.66 658.234 1305.66 653.9 1305.66C650.867 1305.66 647.834 1305.66 644.8 1305.66C462.367 1303.06 297.7 1225.5 180.7 1102.43C180.7 1102.43 180.7 1102 180.267 1102C193.7 1075.56 243.534 1027.9 295.534 988.465C361.4 938.631 454.567 907.865 454.567 907.865C454.567 907.865 515.667 897.898 742.3 945.131C915.2 981.531 988.867 1129.3 1014 1197.33Z" fill="#F7D3B5"/>
<path d="M790.401 1065.16C781.301 1109.8 722.368 1136.23 623.134 1096.36C501.368 1046.96 454.568 907.865 454.568 907.865C448.068 808.198 432.901 722.831 432.901 722.831C573.734 710.698 740.134 875.365 740.134 875.365L759.201 956.831C760.934 963.764 764.401 969.831 769.601 974.165C778.701 989.764 796.468 1036.56 790.401 1065.16Z" fill="#F7D3B5"/>
<path d="M769.6 974.598C686.834 970.265 625.734 958.131 560.3 840.698C615.767 889.665 681.2 908.298 750.1 916.965L759.2 956.831C760.934 964.198 764.4 970.265 769.6 974.598Z" fill="#EFBDA5"/>
<path d="M940.767 452.431C948.567 488.831 952.467 518.298 931.234 615.365C910 712.431 950.734 809.498 848.467 898.331C779.567 958.131 659.1 969.398 562.9 903.965C530.4 881.865 500.5 851.098 476.234 810.798C457.167 779.165 435.067 749.265 410.367 721.965C376.134 684.698 334.967 609.731 355.334 477.131C388.267 261.331 601.9 236.631 728 260.465C854.1 284.298 919.534 356.231 940.767 452.431Z" fill="#F7D3B5"/>
<path d="M526.066 621.865C526.066 621.865 512.633 556.865 449.366 564.665C394.766 571.598 375.7 702.465 499.633 738.865" fill="#F7D3B5"/>
<path d="M495.734 679.498C495.734 679.498 480.134 669.531 481.867 652.198C484.467 631.831 481.867 619.265 472.334 615.365C448.5 605.398 443.734 633.131 444.6 636.598" stroke="#423232" stroke-width="13.4786" stroke-miterlimit="10" stroke-linecap="round" stroke-linejoin="round"/>
<path d="M826.366 721.531C826.366 721.531 842.833 722.398 858.433 703.765C867.1 693.365 874.466 680.365 869.7 676.465C864.933 672.131 786.5 684.265 781.3 694.665C776.1 705.065 806.433 721.531 826.366 721.531Z" fill="#EFBDA5"/>
<path d="M839.367 575.931C839.367 575.931 840.234 617.098 866.667 663.031C878.367 683.398 860.6 716.765 822.034 722.398" stroke="#423232" stroke-width="13.4786" stroke-miterlimit="10" stroke-linecap="round" stroke-linejoin="round"/>
<path opacity="0.42" d="M604.499 743.631C629.149 743.631 649.132 727.14 649.132 706.798C649.132 686.455 629.149 669.965 604.499 669.965C579.849 669.965 559.866 686.455 559.866 706.798C559.866 727.14 579.849 743.631 604.499 743.631Z" fill="#ED938A"/>
<path opacity="0.42" d="M924.3 670.831C923 695.098 923.433 718.931 921.7 742.765C902.633 738.431 888.767 724.131 888.767 707.231C888.767 689.031 903.933 674.298 924.3 670.831Z" fill="#ED938A"/>
<path d="M1158.24 1465.29H62.7764C62.7764 1465.29 69.2764 1264.23 135.143 1120.79C184.976 1012.46 302.41 952.226 389.943 921.026C414.643 912.359 437.176 905.859 454.51 901.093C454.51 903.259 454.943 904.993 454.943 907.159C454.943 907.159 501.743 1046.26 623.51 1095.66C722.743 1135.96 781.676 1109.09 790.776 1064.46C796.41 1035.86 778.643 989.059 769.543 973.893C764.343 969.559 760.876 963.059 759.143 956.559L755.676 942.259C763.91 940.526 771.71 938.359 779.51 935.759C782.11 934.893 784.276 934.026 786.876 933.159C842.776 947.893 926.843 982.993 1026.08 1066.19C1138.31 1160.23 1158.24 1465.29 1158.24 1465.29Z" fill="#CE3E3E"/>
<mask id="mask1_32_1472" style="mask-type:alpha" maskUnits="userSpaceOnUse" x="62" y="901" width="1097" height="565">
<path d="M1158.24 1465.29H62.7764C62.7764 1465.29 69.2764 1264.23 135.143 1120.79C184.976 1012.46 302.41 952.226 389.943 921.026C414.643 912.36 437.176 905.86 454.51 901.093C454.51 903.26 454.943 904.993 454.943 907.16C454.943 907.16 501.743 1046.26 623.51 1095.66C722.743 1135.96 781.676 1109.09 790.776 1064.46C796.41 1035.86 778.643 989.06 769.543 973.893C764.343 969.56 760.876 963.06 759.143 956.56L755.676 942.26C763.91 940.526 771.71 938.36 779.51 935.76C782.11 934.893 784.276 934.026 786.876 933.16C842.776 947.893 926.843 982.993 1026.08 1066.19C1138.31 1160.23 1158.24 1465.29 1158.24 1465.29Z" fill="#CE3E3E"/>
</mask>
<g mask="url(#mask1_32_1472)">
<path d="M512.422 978.397L454.204 1036.61L512.422 1094.83L570.64 1036.61L512.422 978.397Z" fill="white"/>
<path d="M740.424 978.569L682.206 1036.79L740.424 1095L798.642 1036.79L740.424 978.569Z" fill="white"/>
<path d="M284.113 978.531L225.895 1036.75L284.113 1094.97L342.331 1036.75L284.113 978.531Z" fill="white"/>
<path d="M965.684 978.396L907.466 1036.61L965.684 1094.83L1023.9 1036.61L965.684 978.396Z" fill="white"/>
<path d="M406.969 1203.91L348.751 1262.13L406.969 1320.35L465.187 1262.13L406.969 1203.91Z" fill="white"/>
<path d="M635.278 1203.78L577.061 1262L635.278 1320.21L693.496 1262L635.278 1203.78Z" fill="white"/>
<path d="M860.231 1203.91L802.013 1262.13L860.231 1320.35L918.448 1262.13L860.231 1203.91Z" fill="white"/>
</g>
<path d="M719.709 1077.89C719.709 1077.89 689.809 1100.43 696.309 1121.66C702.376 1142.89 760.442 1139.43 771.709 1121.66C782.542 1103.89 734.009 1073.99 719.709 1077.89Z" fill="#CE3E3E"/>
<path d="M719.276 1077.46C719.71 1077.89 719.71 1077.89 720.143 1078.33C720.143 1077.89 720.143 1077.46 720.143 1077.46C719.71 1077.03 719.276 1077.03 719.276 1077.46Z" fill="white"/>
<path d="M604.444 1060.13C482.677 1010.73 454.944 907.159 454.944 907.159C454.944 904.993 454.51 903.259 454.51 901.093C454.077 894.593 452.777 875.959 451.91 869.459C444.11 872.059 434.577 877.259 425.91 882.026C410.31 891.126 397.744 904.126 389.944 920.159C389.944 920.593 389.51 920.593 389.51 921.026C388.644 1034.99 500.01 1122.09 587.11 1153.29C639.977 1172.36 699.344 1145.06 716.244 1091.76C717.544 1086.99 718.844 1082.66 719.71 1077.89C719.277 1077.46 719.277 1077.46 718.844 1077.03C690.677 1083.09 652.11 1079.19 604.444 1060.13Z" fill="white"/>
<path d="M825.876 1041.93C818.509 981.693 799.009 958.293 779.942 935.326C772.142 937.926 759.142 940.959 750.909 942.693C750.909 942.693 779.076 979.093 771.709 1028.49C768.242 1051.89 750.476 1069.66 720.142 1076.59C720.142 1077.03 720.142 1077.03 719.709 1077.46C730.976 1090.46 743.542 1101.73 757.409 1110.83C779.942 1125.99 811.142 1116.03 820.242 1090.46C825.876 1075.73 828.042 1058.83 825.876 1041.93Z" fill="white"/>
<path d="M277.277 1465.29L257.777 1304.96" stroke="#544D4D" stroke-width="13.4786" stroke-miterlimit="10" stroke-linecap="round" stroke-linejoin="round"/>
<path d="M1033.88 1249.93C1033.88 1249.93 1020.88 1281.56 1024.78 1313.19C1028.68 1344.83 1039.94 1391.19 1023.91 1465.29" stroke="#544D4D" stroke-width="13.4786" stroke-miterlimit="10" stroke-linecap="round" stroke-linejoin="round"/>
<path d="M715.185 586.763C715.185 586.763 684.851 587.197 654.084 564.23" stroke="#423232" stroke-width="13.4786" stroke-miterlimit="10" stroke-linecap="round" stroke-linejoin="round"/>
<path d="M843.884 593.697C843.884 593.697 875.084 588.063 884.184 575.93" stroke="#423232" stroke-width="13.4786" stroke-miterlimit="10" stroke-linecap="round" stroke-linejoin="round"/>
<path d="M735.985 553.397C744.219 558.163 754.619 551.663 755.052 541.697C755.052 536.497 754.185 530.863 750.719 526.097C740.319 512.23 689.619 490.997 654.519 500.097C624.185 507.897 698.285 531.73 735.985 553.397Z" fill="#423232"/>
<path d="M869.02 558.597C862.953 563.363 852.987 557.73 851.687 548.63C850.82 543.863 851.253 538.663 853.42 534.33C860.353 521.33 892.42 503.563 918.42 512.23C940.953 520.463 898.053 537.363 869.02 558.597Z" fill="#423232"/>
<path d="M666.218 572.03C662.751 575.063 660.585 579.83 660.151 584.596L659.718 596.73C659.285 607.13 667.085 615.796 677.051 616.23C687.451 616.663 696.118 608.863 696.551 598.896L696.985 586.763C696.985 586.33 696.985 585.896 696.985 585.463C685.718 584.596 675.751 579.83 666.218 572.03Z" fill="#423232"/>
<path d="M843.885 592.83C843.885 593.263 843.885 593.263 843.885 593.697L843.452 604.963C843.019 614.497 850.386 622.73 859.919 623.163C869.452 623.597 877.686 616.23 878.119 606.697L878.552 595.43C878.986 591.097 877.252 587.197 875.086 584.163C865.552 589.797 855.152 591.097 843.885 592.83Z" fill="#423232"/>
<path d="M825.911 779.139C825.911 779.139 768.852 752.631 741.445 767.008" stroke="#423232" stroke-width="13.4786" stroke-miterlimit="10" stroke-linecap="round" stroke-linejoin="round"/>
<path d="M997.527 480.254C985.393 517.954 958.96 553.054 940.327 573.854C952.027 507.987 948.56 481.987 941.627 451.221C939.46 441.687 936.86 432.587 933.827 423.487C865.793 489.787 749.227 424.354 749.227 424.354C749.227 424.354 724.527 444.721 681.193 439.954C634.827 435.187 622.26 406.587 622.26 406.587C609.693 494.121 526.927 460.754 542.093 547.854C546.427 571.687 546.427 594.654 526.06 618.487C522.593 606.354 505.693 556.954 450.227 563.887C397.793 570.387 377.86 691.721 486.193 733.321C484.893 773.621 420.76 874.587 422.927 761.921C423.36 738.954 357.493 740.687 321.527 664.854C305.927 631.921 310.26 601.154 317.193 579.054C324.127 557.821 323.693 534.854 316.76 513.621C308.96 488.921 302.893 451.654 317.193 406.587C341.46 329.454 393.46 311.687 406.893 302.587C420.327 293.487 415.993 226.754 529.96 189.487C603.627 165.221 682.493 207.254 698.96 204.221C715.427 201.187 830.693 125.354 919.527 196.854C1005.33 266.187 973.26 348.087 973.26 348.087C973.26 348.087 1026.99 389.254 997.527 480.254Z" fill="#423232"/>
<path d="M749.234 669.067H648.267C621.834 669.067 600.601 647.833 600.601 621.4V580.233C600.601 553.8 621.834 532.567 648.267 532.567H749.234C775.667 532.567 796.901 553.8 796.901 580.233V621.4C796.901 647.833 775.234 669.067 749.234 669.067Z" stroke="#423232" stroke-width="13.4786" stroke-miterlimit="10" stroke-linecap="round" stroke-linejoin="round"/>
<path d="M923.433 532.567H873.6C856.267 532.567 841.967 546.867 841.967 564.2V601.9C848.033 623.567 856.7 644.367 869.7 663C871 663 872.3 663.434 873.6 663.434H923.433C940.767 663.434 955.067 649.133 955.067 631.8V564.2C955.5 546.433 941.2 532.567 923.433 532.567Z" stroke="#423232" stroke-width="13.4786" stroke-miterlimit="10" stroke-linecap="round" stroke-linejoin="round"/>
<path d="M796.9 572C811.633 570.267 830.266 568.967 845.866 570.7" stroke="#423232" stroke-width="13.4786" stroke-miterlimit="10" stroke-linecap="round" stroke-linejoin="round"/>
<path d="M600.599 575.034L500.066 578.5" stroke="#423232" stroke-width="13.4786" stroke-miterlimit="10" stroke-linecap="round" stroke-linejoin="round"/>
</g>
</svg>
